<?xml version="1.0" standalone="no"?>
<!DOCTYPE svg PUBLIC "-//W3C//DTD SVG 20010904//EN"
 "http://www.w3.org/TR/2001/REC-SVG-20010904/DTD/svg10.dtd">
<svg version="1.0" xmlns="http://www.w3.org/2000/svg"
 width="1742.165651pt" height="1752.454757pt" viewBox="0 0 1742.165651 1752.454757"
 preserveAspectRatio="xMidYMid meet">
<metadata>
Created by potrace 1.16, written by Peter Selinger 2001-2019
</metadata>
<g transform="translate(-224.500000,2034.840782) scale(0.100000,-0.100000)"
fill="#000000" stroke="none">
<path d="M19310 20330 c-30 -10 -75 -24 -100 -31 -25 -8 -60 -23 -78 -35 -17
-12 -58 -30 -90 -40 -31 -10 -72 -26 -90 -36 -18 -10 -39 -18 -48 -18 -27 0
-108 -47 -140 -82 -18 -18 -37 -49 -44 -69 -12 -32 -10 -39 13 -76 27 -43 93
-103 113 -103 7 0 37 23 67 50 58 53 90 62 141 39 39 -18 73 -3 147 67 66 62
73 66 107 60 42 -6 139 -22 193 -32 41 -7 81 10 115 48 29 31 57 121 49 156
-8 38 -64 92 -112 109 -53 18 -177 14 -243 -7z m247 -82 c4 -7 15 -13 23 -13
21 0 26 -53 6 -61 -11 -4 -13 -14 -9 -35 l6 -29 -52 0 c-37 0 -53 4 -57 15 -5
12 -17 14 -60 9 -42 -5 -55 -4 -59 8 -5 11 -22 15 -73 14 l-67 -1 0 -30 c0
-26 -4 -30 -27 -30 -15 0 -33 -6 -40 -13 -7 -7 -13 -25 -13 -40 0 -24 -4 -27
-38 -30 -26 -2 -39 1 -43 12 -5 13 -16 15 -60 10 -50 -6 -54 -5 -55 15 -1 11
-2 27 -3 34 -1 6 6 12 14 12 8 0 20 6 26 14 6 8 16 11 21 8 6 -4 14 0 17 9 5
12 14 15 40 10 24 -5 35 -3 38 6 3 7 18 13 34 13 22 0 29 5 29 20 0 11 7 20
15 20 8 0 20 6 26 14 7 9 21 12 42 8 22 -5 32 -2 36 9 4 11 14 14 30 10 16 -4
26 -1 30 9 7 20 210 22 223 3z m-644 -195 c4 -18 1 -32 -8 -39 -8 -6 -11 -14
-7 -18 4 -4 0 -13 -8 -19 -8 -7 -15 -19 -15 -27 0 -9 -11 -16 -27 -18 -22 -3
-29 3 -43 32 -19 40 -17 71 5 71 8 0 23 10 33 23 27 32 63 29 70 -5z"/>
<path d="M7925 19771 c-3 -5 -31 -21 -63 -36 -56 -25 -152 -108 -152 -131 0
-20 -36 -44 -67 -44 -17 0 -36 -7 -44 -16 -19 -23 -124 -74 -152 -74 -13 0
-41 -11 -61 -25 -50 -34 -124 -71 -161 -79 -56 -14 -115 -91 -115 -150 0 -23
58 -85 97 -105 12 -6 40 -11 63 -11 23 0 50 -5 61 -10 14 -8 32 -7 65 5 26 9
48 14 50 12 2 -2 -5 -22 -16 -45 -11 -22 -20 -46 -20 -52 0 -30 70 -114 114
-137 22 -11 34 -12 55 -3 17 7 109 12 237 13 l210 2 33 28 c35 29 97 37 118
16 7 -7 29 -9 60 -5 127 18 206 18 245 0 63 -28 47 -48 -46 -56 -62 -6 -84
-12 -103 -30 -21 -19 -33 -22 -92 -20 l-68 2 -109 -110 c-60 -60 -112 -118
-115 -128 -7 -19 -71 -72 -86 -72 -17 0 -109 -48 -122 -64 -16 -20 -35 -20
-50 -2 -20 24 -70 27 -115 8 -47 -21 -126 -109 -126 -140 0 -77 118 -212 186
-212 13 0 40 -7 59 -14 29 -12 35 -20 35 -44 0 -22 11 -40 44 -70 48 -44 82
-58 116 -47 36 11 88 64 95 95 4 17 11 30 17 30 6 0 38 -22 72 -49 80 -62 95
-67 145 -41 45 23 82 26 110 8 14 -9 23 -8 42 5 51 37 109 15 109 -41 0 -18
-9 -20 -130 -24 -130 -4 -130 -4 -162 -35 -30 -29 -39 -32 -91 -30 -55 1 -59
-1 -102 -43 -25 -24 -45 -49 -45 -56 0 -6 -8 -18 -18 -28 -11 -9 -25 -34 -32
-56 -12 -38 -12 -42 9 -64 21 -22 22 -27 10 -60 -10 -27 -10 -41 -1 -61 7 -14
12 -38 12 -53 0 -29 52 -88 97 -111 33 -17 158 -14 173 3 6 8 31 22 54 31 42
16 43 16 95 -14 28 -17 56 -31 61 -31 4 0 34 23 65 51 59 54 63 56 168 51 38
-2 47 -5 47 -20 0 -31 -97 -92 -147 -92 -34 -1 -113 -27 -170 -58 -37 -19
-123 -111 -123 -130 0 -4 -31 -7 -70 -7 -69 0 -70 0 -115 -45 -48 -46 -75 -95
-75 -135 0 -27 77 -101 116 -111 15 -4 35 -2 45 5 31 18 135 14 179 -9 21 -11
41 -24 45 -30 8 -13 112 -13 120 0 9 14 58 13 73 -2 19 -19 14 -46 -8 -53 -11
-4 -48 -29 -82 -56 -35 -28 -72 -49 -85 -49 -53 0 -158 -75 -278 -197 -28 -29
-63 -55 -80 -59 -41 -9 -100 -67 -115 -114 -13 -38 -12 -39 30 -90 31 -37 64
-62 121 -91 92 -46 154 -52 196 -19 17 13 41 20 70 20 59 0 103 22 153 76 32
35 47 44 73 44 18 0 57 9 87 20 30 11 71 20 90 20 41 0 95 18 130 43 31 22 63
22 127 -2 74 -27 210 -19 338 19 24 7 60 32 91 61 57 56 69 57 151 17 53 -26
81 -19 136 32 40 36 46 38 87 33 25 -3 70 -14 101 -24 71 -24 132 -24 167 0
20 14 51 20 117 24 81 5 94 3 139 -20 40 -20 53 -23 73 -14 13 6 33 11 44 11
12 0 32 9 45 19 35 27 101 37 122 18 56 -49 103 -41 188 30 28 24 54 43 58 43
4 0 27 -16 50 -35 25 -20 54 -35 69 -35 15 0 42 -9 62 -20 20 -11 46 -20 59
-20 13 0 34 -8 47 -18 63 -47 81 -49 177 -22 37 11 48 10 82 -5 22 -10 52 -15
70 -13 28 4 38 -2 82 -49 28 -29 57 -53 66 -53 8 0 31 -13 51 -28 20 -16 54
-39 76 -51 l40 -22 48 25 c69 37 149 28 231 -26 43 -27 71 -38 99 -38 72 0
131 -27 168 -77 43 -56 105 -99 155 -106 61 -8 120 -25 157 -46 66 -37 89 -36
138 8 l44 39 -2 71 c-2 39 0 71 3 71 27 0 147 -93 177 -138 13 -20 45 -58 71
-83 50 -51 54 -59 30 -59 -29 0 -90 -57 -103 -97 -11 -32 -10 -43 3 -68 12
-22 14 -45 10 -85 -5 -46 -2 -65 17 -105 23 -48 76 -108 138 -153 17 -13 31
-28 31 -33 0 -5 -16 -26 -35 -48 -45 -49 -46 -86 -5 -126 21 -20 30 -38 30
-60 0 -22 9 -40 30 -60 24 -23 30 -37 30 -70 0 -36 6 -47 58 -98 32 -31 64
-57 73 -57 8 0 20 -5 27 -12 17 -17 92 27 127 75 27 38 30 51 36 152 6 118 19
160 65 214 22 27 29 45 29 79 0 39 -5 48 -40 78 -36 31 -44 34 -86 29 -54 -7
-54 -7 -104 95 -21 41 -44 83 -52 92 -8 9 -12 21 -9 26 3 6 -1 27 -10 47 -12
29 -13 44 -5 68 16 44 13 78 -8 117 -10 19 -21 66 -25 103 -7 61 -13 74 -53
125 -25 31 -65 77 -89 102 -23 25 -55 70 -70 100 -15 30 -45 80 -68 110 -23
30 -48 69 -56 85 -8 17 -54 71 -101 120 -71 75 -89 100 -103 147 -24 77 -74
148 -228 324 -27 30 -48 58 -48 62 0 5 -25 34 -56 65 -54 54 -59 57 -108 57
-40 0 -61 7 -95 30 -24 17 -48 30 -53 30 -4 0 -8 7 -8 15 0 8 6 15 13 15 7 0
29 16 48 36 l34 35 0 117 c0 115 -21 222 -47 238 -5 3 -13 16 -18 29 -11 28
-181 165 -206 165 -3 0 -26 14 -51 30 -24 17 -49 30 -55 30 -6 0 -19 6 -27 14
-26 22 -120 86 -127 86 -4 0 -31 18 -61 41 -30 22 -69 47 -86 54 -39 16 -62
41 -70 76 -4 14 -18 42 -31 62 -13 19 -38 64 -54 99 -128 272 -179 351 -270
422 -32 24 -64 52 -72 61 -8 9 -46 33 -84 52 -39 19 -93 49 -120 67 -54 35
-64 36 -351 38 -128 1 -155 -1 -178 -16 -22 -15 -32 -16 -62 -6 -28 9 -39 9
-50 0 -12 -10 -19 -7 -37 15 -88 106 -102 117 -149 116 -94 -2 -185 -9 -207
-15 -19 -6 -32 1 -72 38 -26 25 -61 48 -77 51 -15 3 -51 13 -80 21 -28 8 -66
13 -85 10 -31 -6 -37 -2 -110 76 -42 46 -94 102 -115 126 -38 42 -39 43 -128
52 -49 5 -130 14 -179 20 -76 10 -90 9 -105 -4 -27 -25 -54 -19 -91 19 -37 38
-87 47 -110 20 -19 -23 -33 -18 -71 21 -18 19 -53 44 -76 55 -23 10 -45 24
-49 30 -4 7 -23 9 -53 5 -45 -6 -47 -5 -99 49 l-53 54 -140 -4 c-112 -4 -146
-2 -169 10 -33 17 -76 20 -85 6z m81 -96 c14 -21 22 -24 67 -22 30 1 57 8 62
15 7 8 25 12 45 10 27 -2 35 -7 35 -23 0 -13 7 -20 20 -20 13 0 20 7 20 20 0
16 7 20 30 20 23 0 30 -4 30 -20 0 -13 7 -20 20 -20 15 0 20 -7 20 -26 0 -31
23 -62 41 -55 7 3 15 -3 19 -12 6 -15 10 -13 29 11 27 34 71 35 71 2 0 -15 7
-20 28 -20 15 0 31 -4 35 -10 4 -5 14 -10 22 -10 10 0 15 -10 15 -27 0 -42 42
-80 85 -76 33 3 35 5 32 36 -3 29 -1 32 26 32 42 0 63 -28 60 -81 -3 -43 -2
-44 27 -44 20 0 29 -4 27 -14 -5 -23 50 -73 73 -67 14 3 27 -5 45 -29 27 -38
50 -45 50 -17 0 10 5 23 11 29 15 15 3 47 -15 40 -8 -3 -17 1 -20 10 -4 10
-14 13 -30 9 -16 -4 -26 -1 -30 10 -3 8 -14 14 -23 12 -26 -4 -31 57 -7 83 20
22 62 25 70 4 5 -11 22 -14 72 -12 64 2 67 1 64 -20 -4 -26 13 -31 26 -7 6 12
23 14 73 12 61 -3 64 -4 63 -28 -1 -14 4 -28 10 -32 6 -4 11 -20 11 -35 0 -26
3 -28 35 -25 49 3 92 -40 88 -89 -2 -26 1 -34 13 -34 10 0 26 -11 37 -25 18
-22 21 -23 27 -8 4 9 12 15 20 12 7 -3 15 2 18 10 8 20 56 21 63 1 4 -8 11
-12 16 -9 6 4 14 0 19 -7 5 -9 27 -14 56 -14 36 0 48 -4 48 -15 0 -8 5 -18 10
-22 6 -4 10 -20 10 -35 0 -18 5 -28 15 -28 8 0 20 -6 26 -13 16 -21 59 -11 59
13 0 17 8 21 44 23 32 2 47 -1 53 -12 13 -23 33 -20 52 9 18 27 59 34 73 13 4
-7 15 -13 23 -13 11 0 15 -12 15 -50 0 -48 1 -50 27 -50 17 0 34 -9 43 -22 19
-27 40 -30 53 -7 6 10 20 14 43 12 29 -3 34 -6 31 -25 -4 -27 -3 -27 34 -8 16
8 29 23 29 32 0 26 62 31 80 6 13 -17 14 -17 20 0 6 15 21 17 111 17 84 0 106
-3 110 -15 4 -9 19 -15 39 -15 20 0 35 6 39 15 10 26 52 17 82 -17 15 -18 33
-32 41 -30 7 2 16 -4 19 -12 3 -8 12 -12 20 -9 7 3 17 -2 20 -11 4 -11 13 -14
28 -10 18 4 33 -6 71 -48 26 -29 52 -52 58 -50 15 4 88 -70 83 -84 -3 -7 7
-20 20 -29 14 -9 23 -23 20 -30 -2 -7 2 -16 11 -19 8 -4 13 -13 10 -20 -4 -9
5 -21 19 -31 14 -9 23 -23 20 -30 -2 -7 2 -16 11 -19 11 -5 14 -15 9 -40 -6
-29 -3 -36 20 -50 14 -10 23 -24 20 -31 -2 -7 2 -16 11 -19 8 -4 13 -13 10
-20 -3 -8 1 -17 10 -20 8 -4 13 -13 10 -20 -4 -9 5 -21 20 -31 21 -14 24 -22
19 -50 -5 -22 -2 -36 6 -42 7 -4 13 -15 13 -23 0 -8 8 -15 17 -15 22 0 43 -21
43 -43 0 -14 8 -16 46 -14 35 2 49 -2 64 -18 10 -11 15 -23 12 -27 -14 -13 25
-43 49 -37 16 4 26 1 30 -9 3 -9 12 -13 19 -11 7 3 25 -10 40 -30 15 -20 32
-33 40 -30 7 3 21 -6 30 -20 13 -19 23 -24 40 -20 18 4 29 -2 50 -30 21 -28
32 -35 50 -30 17 4 29 -3 50 -28 16 -18 33 -32 38 -30 6 2 28 -14 49 -35 29
-28 38 -44 34 -59 -4 -15 0 -24 10 -28 11 -4 14 -13 10 -30 -4 -16 -1 -26 9
-30 21 -8 19 -66 -2 -82 -17 -12 -17 -13 0 -19 13 -6 17 -19 17 -57 l0 -49
-52 3 -53 3 2 56 c3 50 0 58 -27 84 -25 24 -30 26 -36 12 -4 -11 -13 -15 -28
-11 -14 3 -28 -2 -40 -15 -21 -24 -14 -53 11 -49 12 2 18 -3 18 -17 0 -16 7
-20 30 -20 27 0 30 -4 33 -32 3 -31 1 -33 -28 -33 -18 0 -33 6 -36 15 -7 18
-50 20 -61 3 -4 -7 -15 -13 -23 -13 -8 0 -15 -7 -15 -15 0 -8 -7 -20 -15 -27
-13 -10 -13 -12 2 -18 9 -4 14 -13 11 -21 -8 -22 28 -30 43 -10 16 22 79 19
79 -4 0 -8 4 -18 10 -22 5 -4 10 -15 10 -25 0 -10 7 -18 15 -18 8 0 19 -6 23
-13 6 -8 24 -10 60 -6 47 5 54 4 77 -21 14 -14 25 -34 25 -43 0 -23 53 -29 61
-8 9 22 67 21 88 -2 9 -11 15 -30 14 -43 -2 -18 2 -24 17 -24 15 0 20 -7 20
-30 0 -22 5 -30 17 -30 22 0 43 -21 43 -43 0 -9 6 -16 14 -14 23 5 53 -30 47
-54 -6 -22 24 -60 37 -47 10 9 48 -29 43 -43 -3 -7 7 -20 20 -29 20 -13 24
-22 20 -40 -4 -15 -1 -25 9 -29 19 -7 19 -52 0 -60 -28 -10 -16 -27 18 -24 28
3 32 0 35 -22 3 -37 -8 -48 -58 -52 -39 -3 -45 -1 -45 17 0 16 -7 20 -30 20
-22 0 -30 5 -30 17 0 10 -10 25 -23 33 -25 18 -30 60 -7 69 23 9 18 28 -7 24
-15 -2 -23 2 -23 12 0 9 -33 47 -72 84 -71 67 -73 69 -70 115 2 45 1 46 -28
46 -23 0 -30 -4 -30 -20 0 -16 -8 -21 -44 -23 -60 -4 -83 17 -75 69 6 34 4 39
-13 39 -23 0 -48 -25 -48 -49 0 -22 -53 -28 -61 -7 -3 8 -12 12 -20 9 -7 -3
-17 2 -20 11 -4 11 -13 14 -29 10 -14 -3 -26 0 -32 8 -4 7 -15 13 -23 13 -8 0
-15 7 -15 15 0 8 -6 20 -13 26 -8 5 -12 21 -10 35 2 18 8 23 26 21 12 -2 22
-1 22 1 0 15 -31 61 -49 74 -12 8 -20 22 -19 31 2 13 -3 16 -22 14 -14 -1 -29
4 -35 11 -6 8 -21 14 -35 13 -19 -1 -25 4 -25 19 0 13 -7 20 -20 20 -13 0 -20
7 -20 20 0 13 -7 20 -20 20 -11 0 -20 7 -20 15 0 8 -4 18 -10 22 -5 4 -10 20
-10 35 0 18 -5 28 -15 28 -8 0 -20 7 -27 15 -10 13 -12 13 -19 -3 -6 -16 -14
-18 -59 -12 -55 6 -80 -7 -80 -44 0 -9 -7 -16 -15 -16 -8 0 -19 -6 -23 -12
-11 -18 -56 -16 -63 1 -3 8 -11 13 -19 10 -7 -3 -15 2 -19 11 -5 13 -14 15
-51 10 -36 -6 -46 -4 -51 9 -4 11 -13 14 -29 10 -18 -4 -27 1 -40 20 -15 23
-22 26 -51 20 -26 -5 -35 -2 -40 10 -8 21 -70 22 -78 1 -3 -9 -18 -15 -40 -15
-28 0 -40 7 -62 35 l-27 35 -80 -6 c-69 -6 -82 -5 -93 10 -9 13 -24 16 -66 14
-45 -3 -53 -6 -53 -23 0 -17 -8 -20 -54 -23 -41 -2 -57 1 -63 12 -11 20 -37
21 -44 1 -8 -19 -73 -20 -80 -1 -4 11 -29 13 -129 8 -109 -4 -125 -3 -131 12
-8 21 -72 22 -81 0 -3 -8 -12 -13 -19 -10 -7 3 -17 0 -21 -7 -5 -7 -15 -12
-23 -12 -11 0 -15 -10 -13 -34 1 -21 -5 -39 -14 -46 -13 -10 -13 -13 3 -26 9
-7 33 -14 53 -14 29 0 36 -4 36 -20 0 -18 8 -20 64 -23 50 -2 67 0 73 12 5 9
22 16 40 16 l31 0 -7 -47 c-5 -36 -2 -51 11 -65 20 -23 78 -24 87 -2 4 11 18
14 53 12 42 -3 48 -1 48 17 0 15 6 20 25 19 14 -1 29 5 33 12 6 10 29 14 77
14 l70 0 -7 -76 c-5 -60 -3 -79 8 -88 8 -6 14 -18 14 -26 0 -12 14 -15 70 -15
l70 0 0 -30 c0 -23 4 -30 20 -30 16 0 20 -6 18 -34 -1 -21 5 -39 14 -46 19
-14 13 -60 -7 -60 -8 0 -19 -6 -23 -13 -6 -8 -18 -11 -32 -8 -17 4 -27 -1 -40
-20 -13 -20 -22 -24 -41 -20 -17 5 -26 2 -30 -8 -3 -8 -11 -13 -18 -10 -15 6
-61 -42 -61 -64 0 -12 -10 -18 -37 -20 -35 -3 -38 -1 -38 22 0 16 -6 26 -15
26 -9 0 -15 -10 -15 -26 0 -26 0 -26 -65 -19 -54 6 -66 5 -71 -8 -4 -13 -16
-15 -55 -10 -41 5 -49 3 -49 -11 0 -9 5 -16 10 -16 6 0 10 -5 10 -12 0 -38 74
-65 87 -32 5 13 15 15 58 9 42 -5 54 -3 58 9 8 20 56 21 63 2 3 -8 11 -13 19
-10 7 3 15 -2 18 -10 9 -22 92 -22 101 -1 7 19 55 20 62 1 4 -11 17 -13 55 -9
l49 6 0 -37 c0 -36 -1 -37 -32 -34 -31 3 -33 1 -33 -27 0 -26 -4 -30 -25 -29
-14 1 -30 -5 -36 -13 -14 -20 -59 -13 -58 9 2 24 -51 72 -71 64 -9 -3 -15 -14
-13 -23 2 -15 -4 -18 -37 -18 -33 0 -40 -3 -40 -20 0 -17 -6 -20 -37 -18 -24
1 -38 -3 -42 -12 -13 -35 -80 -7 -81 34 0 23 -65 28 -77 7 -13 -22 -133 -23
-142 -1 -8 21 -28 19 -24 -3 6 -35 -20 -52 -79 -52 -38 0 -55 4 -59 15 -4 10
-14 13 -30 9 -17 -4 -26 -1 -30 10 -5 14 -15 16 -49 11 -33 -6 -43 -4 -48 9
-8 19 -53 21 -64 4 -4 -7 -15 -13 -23 -13 -11 0 -14 -10 -12 -42 l3 -43 -40 0
c-32 0 -44 5 -57 25 -14 22 -22 24 -50 19 -26 -5 -35 -2 -40 10 -9 24 -86 22
-108 -3 -16 -18 -16 -20 -1 -28 21 -12 16 -58 -5 -58 -8 0 -19 -6 -23 -13 -6
-8 -18 -11 -32 -8 -16 4 -25 1 -29 -10 -5 -13 -15 -15 -50 -10 -34 5 -45 4
-49 -9 -4 -9 -19 -15 -42 -15 -31 0 -35 3 -35 25 0 16 -6 25 -15 25 -9 0 -15
-9 -15 -25 0 -20 -5 -25 -25 -25 -14 0 -28 7 -31 15 -4 10 -14 13 -30 9 -16
-4 -26 -1 -30 9 -3 9 -12 13 -20 10 -8 -3 -14 0 -14 5 0 9 -54 42 -68 42 -2 0
-2 -13 1 -29 7 -35 -21 -66 -51 -57 -13 5 -22 1 -26 -10 -5 -14 -15 -16 -60
-10 -44 5 -55 3 -60 -10 -4 -11 -13 -14 -30 -10 -16 4 -26 1 -30 -9 -8 -21
-72 -20 -80 1 -8 20 -61 15 -61 -6 0 -8 -6 -19 -13 -23 -7 -5 -10 -18 -6 -30
6 -25 -27 -64 -44 -53 -6 3 -12 -1 -16 -9 -7 -19 -52 -19 -60 0 -9 25 -32 17
-61 -20 -26 -35 -27 -36 -93 -33 -59 3 -67 5 -67 23 0 15 -7 20 -29 20 -16 0
-31 5 -33 12 -2 7 -10 10 -17 7 -19 -7 -48 31 -44 58 2 13 10 23 18 23 8 0 20
6 25 13 7 9 29 12 65 10 l55 -3 0 37 c0 40 16 63 43 63 10 0 17 8 17 20 0 13
7 20 20 20 13 0 20 7 20 20 0 12 7 20 16 20 9 0 29 15 44 34 26 30 31 32 72
26 34 -5 44 -3 49 9 3 9 11 13 16 10 6 -4 19 4 29 17 10 13 26 24 36 24 10 0
18 7 18 16 0 34 26 49 80 49 37 0 55 -4 58 -14 5 -13 10 -13 37 1 25 12 30 20
26 38 -4 16 -1 25 11 29 15 6 15 8 -1 24 -9 9 -29 17 -44 17 -24 0 -27 3 -27
37 0 44 -16 63 -53 63 -20 0 -27 5 -27 20 0 17 -7 20 -37 18 -24 -1 -38 3 -42
12 -9 24 -28 17 -24 -7 3 -21 -1 -23 -54 -26 -54 -3 -57 -2 -83 32 l-26 35
-71 -6 c-59 -5 -72 -3 -80 10 -13 24 -30 21 -26 -5 3 -20 -2 -23 -39 -26 -42
-3 -43 -2 -43 27 0 16 6 34 13 38 6 4 12 15 12 23 0 8 7 15 15 15 8 0 20 6 25
13 7 8 25 12 45 10 27 -2 35 -7 35 -23 0 -16 8 -21 37 -23 30 -3 40 1 53 21
11 17 22 23 35 20 23 -6 27 15 5 23 -9 4 -15 19 -15 38 0 41 48 91 78 82 13
-5 22 -1 26 10 3 9 13 14 20 11 8 -3 17 1 20 10 5 12 16 14 50 9 35 -6 45 -4
50 10 5 12 14 15 39 10 30 -6 36 -2 71 40 22 26 44 43 51 40 8 -3 15 0 18 7 2
7 12 12 23 12 16 0 19 9 22 54 2 37 -1 57 -10 62 -7 5 -13 21 -13 36 l0 28
-86 -3 c-83 -4 -86 -3 -103 22 -20 32 -38 34 -34 4 3 -21 -1 -23 -47 -23 -48
0 -50 -1 -50 -28 0 -15 -4 -31 -10 -35 -5 -4 -10 -14 -10 -22 0 -8 -11 -17
-24 -18 -27 -4 -82 43 -74 64 8 21 -28 30 -41 11 -8 -9 -25 -15 -47 -14 -25 2
-34 -2 -34 -14 -1 -45 -74 -68 -101 -31 -12 16 -13 16 -19 0 -5 -13 -18 -18
-47 -18 l-41 0 7 39 c4 29 2 40 -9 45 -21 8 -19 53 2 65 10 5 15 13 11 17 -4
4 0 12 9 19 27 20 9 46 -27 39 -29 -6 -30 -5 -30 30 0 36 1 37 33 34 l32 -3
-3 43 -3 43 53 -3 c44 -2 53 -6 50 -21 -4 -22 27 -35 42 -16 6 8 18 14 26 14
11 0 14 10 12 43 l-3 42 151 0 c122 0 152 -3 156 -14 3 -8 11 -13 18 -10 6 2
23 -7 36 -22 19 -20 25 -37 25 -72 0 -42 3 -47 23 -50 27 -4 65 25 58 44 -3 7
2 15 10 18 11 4 13 15 8 46 l-7 40 41 0 c26 0 42 -5 46 -15 8 -22 33 -18 51 7
8 13 23 23 33 23 15 0 17 9 14 66 -3 56 -1 67 14 73 15 6 14 10 -11 36 -33 34
-88 41 -103 13 -6 -10 -16 -14 -27 -9 -14 5 -30 -7 -67 -49 -40 -44 -56 -55
-80 -55 -30 0 -30 1 -25 39 3 29 1 41 -9 45 -8 3 -14 17 -14 31 0 20 5 25 25
25 16 0 25 6 25 16 0 14 -7 16 -41 11 -29 -4 -42 -1 -46 9 -3 9 -13 12 -28 8
-16 -4 -26 0 -32 11 -14 25 -78 17 -78 -10 0 -16 -7 -20 -30 -20 -23 0 -30 4
-30 20 0 14 -8 21 -26 23 -20 2 -32 -5 -53 -32 -28 -37 -67 -48 -83 -23 -4 6
-15 12 -23 12 -8 0 -15 9 -15 20 0 13 -7 20 -20 20 -13 0 -20 7 -20 20 0 11
-7 20 -15 20 -8 0 -19 6 -23 13 -14 22 -69 14 -98 -14 -25 -24 -27 -31 -22
-75 l6 -49 -57 0 -56 0 0 40 c0 27 5 43 15 46 21 9 19 48 -5 69 -18 16 -20 16
-26 1 -7 -19 -49 -22 -61 -3 -4 6 -15 12 -23 12 -8 0 -15 9 -15 20 0 24 -33
33 -41 11 -3 -9 -16 -16 -28 -16 -25 0 -81 53 -72 68 3 6 -1 12 -9 16 -24 9
-17 50 14 80 24 23 36 27 72 24 42 -3 44 -5 44 -33 0 -20 5 -30 15 -30 8 0 20
-6 26 -14 14 -18 48 -6 41 13 -3 8 -1 17 6 19 7 2 12 17 12 33 0 25 4 29 25
28 14 -1 28 4 32 10 4 6 24 11 45 11 28 0 38 4 38 16 0 28 27 51 50 45 24 -6
62 25 51 42 -3 6 1 12 9 16 11 4 13 14 8 36 l-6 32 54 -4 54 -3 0 50 c0 43 3
50 20 50 13 0 20 7 20 20 0 16 8 21 38 23 26 2 39 -1 43 -12 7 -19 50 -21 61
-3 4 6 15 12 23 12 8 0 15 9 15 20 0 18 6 20 77 18 61 -1 78 2 82 14 5 11 15
14 40 9 35 -7 61 11 61 43 0 11 7 15 23 13 25 -4 30 15 7 24 -8 4 -15 17 -15
30 0 14 7 27 15 30 24 10 17 48 -14 78 -32 31 -64 30 -59 -1 2 -15 -4 -18 -37
-18 -38 0 -40 2 -37 28 3 33 -25 49 -43 24 -16 -23 -71 -22 -80 1 -6 16 -7 16
-20 -1 -9 -13 -20 -16 -39 -11 -19 5 -31 2 -39 -10 -10 -13 -24 -17 -57 -14
-40 3 -45 5 -42 26 4 24 -15 30 -24 7 -4 -10 -19 -14 -52 -12 -41 2 -47 -1
-47 -18 0 -11 -7 -20 -15 -20 -8 0 -19 -6 -23 -12 -12 -20 -173 -18 -181 2 -7
20 -53 19 -64 -2 -8 -14 -22 -15 -100 -10 -75 5 -91 3 -96 -9 -8 -20 -61 -15
-61 6 0 8 -6 19 -12 23 -7 4 -13 22 -13 38 0 30 1 30 43 27 41 -3 42 -2 42 27
l0 30 74 -3 c58 -2 78 1 93 15 10 9 17 22 14 29 -3 7 2 15 10 18 8 3 14 15 14
27 0 19 -4 21 -30 16 -28 -6 -30 -4 -30 23 0 16 5 32 11 36 6 3 8 17 5 30 -4
14 -2 24 4 24 21 0 22 31 2 53 -11 12 -22 38 -24 57 -3 33 -1 35 27 35 29 0
30 1 27 45 -2 28 2 48 10 55 7 5 13 17 13 25 0 8 8 15 17 15 10 0 25 10 33 23
18 25 60 30 69 7 10 -28 29 -17 23 14 -7 34 -2 41 29 41 14 0 30 -10 40 -25z
m-328 -207 c7 -7 12 -27 12 -45 0 -31 -2 -32 -30 -26 -32 6 -40 -7 -16 -26 8
-7 12 -21 9 -31 -3 -12 1 -22 11 -26 9 -3 13 -10 10 -15 -3 -6 -1 -15 4 -22 6
-7 12 -28 14 -47 l3 -35 -60 0 c-53 0 -60 -2 -60 -20 0 -15 -8 -21 -33 -23
-32 -3 -33 -2 -30 30 3 31 1 33 -32 36 -23 3 -38 -2 -46 -13 -8 -11 -20 -15
-32 -11 -13 4 -22 1 -26 -9 -9 -25 -61 -16 -61 10 0 24 -33 33 -41 11 -4 -11
-19 -16 -45 -16 l-39 0 0 46 0 47 40 -6 c34 -4 41 -2 55 20 14 21 22 24 49 19
35 -7 61 11 61 43 0 12 9 15 37 14 25 -2 38 3 42 13 4 11 14 14 30 10 17 -4
26 -1 30 10 3 9 13 14 20 11 8 -3 16 -1 19 6 2 7 12 12 23 12 10 0 19 7 20 15
0 8 2 18 2 23 3 11 47 8 60 -5z m1102 -1576 c0 -13 -12 -22 -22 -16 -10 6 -1
24 13 24 5 0 9 -4 9 -8z m2010 -490 c73 -7 107 -19 142 -49 12 -11 28 -13 55
-8 74 13 142 5 173 -20 20 -16 112 -45 144 -45 14 0 44 -10 66 -21 52 -27 87
-21 144 26 58 47 104 48 140 3 56 -69 69 -82 111 -115 24 -18 50 -33 58 -33
24 0 37 -25 31 -56 -3 -16 1 -45 10 -65 20 -49 101 -126 140 -135 17 -4 47
-15 66 -26 23 -12 45 -16 63 -12 28 6 90 -16 102 -36 3 -6 26 -10 51 -10 42 0
49 -4 102 -61 62 -67 73 -84 92 -142 11 -35 10 -41 -8 -60 -11 -12 -25 -38
-32 -58 -13 -35 -12 -36 44 -110 52 -68 123 -128 150 -129 19 -1 93 -70 75
-70 -9 0 -27 8 -40 18 -13 10 -44 24 -69 32 -25 7 -62 22 -82 32 -21 10 -48
18 -61 18 -13 0 -36 9 -50 20 -14 11 -32 20 -40 20 -8 0 -26 9 -40 20 -14 11
-31 20 -38 20 -6 0 -32 17 -57 37 -69 56 -103 77 -150 93 -66 21 -66 30 1 44
15 4 45 22 65 41 33 29 37 39 37 80 0 43 -4 50 -40 81 -22 18 -56 36 -76 39
-21 4 -45 13 -56 20 -10 8 -36 15 -59 15 -33 0 -46 -6 -70 -32 -34 -37 -54
-78 -54 -110 0 -12 20 -47 45 -79 l45 -57 -60 -7 c-50 -6 -65 -4 -88 11 -46
31 -94 44 -174 47 -47 2 -83 9 -94 17 -40 34 -184 63 -303 61 -35 0 -61 5 -71
14 -9 8 -58 19 -113 26 -87 11 -99 10 -115 -4 -25 -23 -34 -21 -61 7 -12 13
-39 26 -61 30 -21 3 -42 11 -45 17 -9 13 21 36 56 44 33 7 106 82 114 117 7
27 -19 146 -35 162 -16 16 -11 52 10 71 49 44 30 128 -43 191 -41 34 -41 34
-114 28 -63 -6 -76 -4 -93 11 -40 36 -20 57 45 49 22 -3 74 -8 115 -12z m-383
-14 c56 -2 59 -9 10 -34 -67 -35 -137 -40 -137 -9 0 7 -7 18 -15 25 -29 24
-16 32 38 25 28 -3 75 -7 104 -7z m406 -136 c16 -16 27 -39 27 -55 0 -23 -4
-27 -30 -27 -16 0 -33 6 -37 13 -5 9 -27 13 -63 13 -55 -1 -55 -1 -55 29 0 28
3 30 35 29 19 0 39 6 43 13 13 22 52 15 80 -15z m1182 -557 c0 -18 6 -20 63
-16 l62 3 0 -37 0 -38 -50 5 c-35 4 -50 1 -54 -9 -9 -22 -51 -15 -79 15 -20
20 -27 39 -27 66 l0 37 43 -3 c34 -2 42 -7 42 -23z m-999 -89 c4 -11 18 -13
58 -9 29 3 56 2 59 -3 3 -5 3 -30 0 -57 -5 -41 -8 -47 -29 -47 -14 0 -30 10
-40 25 -14 22 -21 24 -55 19 -48 -8 -79 15 -79 58 0 26 3 28 40 28 26 0 43 -5
46 -14z m270 -51 c18 -28 42 -33 50 -10 8 20 73 20 80 0 4 -10 14 -13 29 -9
14 3 26 0 32 -8 4 -7 15 -13 23 -13 11 0 15 -11 15 -40 0 -38 -1 -40 -35 -43
-20 -2 -38 2 -45 10 -5 7 -17 13 -25 13 -10 0 -14 8 -12 23 4 30 -14 28 -34
-4 -13 -19 -23 -24 -40 -20 -14 4 -24 1 -28 -9 -9 -24 -72 -19 -91 7 -8 13
-23 23 -33 23 -9 0 -17 6 -16 13 1 6 2 26 3 43 1 28 4 30 25 25 16 -4 26 -1
30 9 9 24 54 18 72 -10z m351 -70 c4 -13 15 -14 49 -9 34 5 45 3 50 -9 3 -9
12 -13 19 -11 7 3 21 -6 30 -20 20 -30 79 -37 89 -11 7 20 55 19 63 0 4 -13
15 -14 49 -9 35 5 45 3 50 -10 5 -13 14 -15 40 -10 25 5 35 2 40 -9 3 -9 11
-14 18 -11 15 6 41 -22 41 -45 0 -11 9 -16 30 -16 23 0 30 -4 30 -20 0 -13 7
-20 19 -20 11 0 21 -6 24 -13 2 -7 13 -10 27 -6 18 4 27 0 40 -20 13 -20 23
-24 40 -20 18 4 28 -1 41 -21 15 -23 21 -25 60 -19 38 5 44 3 59 -20 15 -23
22 -26 51 -20 25 5 35 2 40 -9 3 -9 12 -13 19 -11 7 3 21 -6 30 -20 10 -14 21
-23 27 -20 17 11 50 -28 44 -52 -4 -14 -1 -24 9 -28 9 -3 15 -18 15 -36 0 -27
-3 -30 -30 -30 -17 0 -33 6 -36 14 -3 8 -12 12 -19 10 -7 -3 -21 6 -31 21 -15
23 -21 25 -60 19 -35 -5 -45 -3 -50 10 -5 14 -15 16 -48 11 -36 -6 -44 -3 -69
23 -17 18 -26 37 -25 53 2 18 -2 24 -15 23 -10 -1 -25 9 -33 21 -9 14 -22 21
-30 18 -7 -3 -17 2 -20 11 -4 11 -13 14 -28 10 -17 -4 -27 1 -41 22 -16 25
-19 26 -30 10 -18 -23 -100 -19 -100 5 0 23 -26 51 -41 45 -7 -3 -15 2 -18 10
-4 11 -17 13 -59 8 -44 -5 -55 -4 -60 10 -7 19 -52 22 -64 4 -4 -7 -15 -13
-23 -13 -8 0 -15 -9 -15 -20 0 -14 -8 -21 -27 -23 -21 -3 -34 6 -64 43 -21 25
-44 43 -51 41 -6 -3 -14 0 -16 7 -2 7 -17 12 -33 12 -26 0 -29 4 -29 30 0 23
-4 30 -20 30 -16 0 -21 8 -23 39 -2 21 -1 44 2 52 7 19 55 18 63 -1z m979 0
c4 -9 14 -14 22 -13 11 2 17 -4 17 -17 0 -29 45 -32 70 -5 10 11 24 20 30 20
7 0 18 7 25 15 7 8 20 15 29 15 21 0 135 -115 127 -128 -3 -5 1 -13 10 -16 8
-3 14 -12 12 -19 -2 -8 12 -27 30 -42 18 -15 31 -34 28 -41 -3 -7 7 -20 20
-29 14 -9 23 -23 20 -30 -2 -7 2 -16 10 -19 10 -4 14 -17 12 -43 -2 -31 0 -38
15 -38 10 0 21 -5 25 -10 4 -6 14 -10 22 -10 10 0 15 -10 15 -27 0 -28 42 -81
57 -72 17 11 50 -29 44 -52 -4 -14 -1 -24 10 -28 11 -4 14 -17 12 -43 -3 -35
-6 -38 -33 -38 -23 0 -30 4 -30 20 0 13 -7 20 -20 20 -12 0 -20 7 -20 16 0 23
-24 49 -39 43 -18 -7 -50 32 -42 51 6 18 -58 88 -82 89 -7 1 -16 6 -20 11 -4
6 -14 10 -22 10 -11 0 -14 10 -12 43 3 43 -9 56 -26 26 -11 -21 -77 -16 -77 6
0 8 -7 20 -15 27 -8 6 -12 15 -7 19 10 10 -22 44 -37 38 -18 -7 -41 24 -41 55
0 22 -5 26 -28 26 -15 0 -31 6 -36 13 -4 7 -15 10 -26 6 -11 -5 -22 -2 -29 7
-6 8 -18 14 -26 14 -10 0 -15 10 -15 30 0 20 -4 29 -14 27 -22 -5 -51 29 -51
60 0 26 3 28 40 28 27 0 43 -5 46 -15z m686 -722 c11 -10 18 -30 18 -55 0 -35
-2 -38 -29 -38 -23 0 -33 7 -45 32 -17 33 -20 60 -9 71 12 12 46 7 65 -10z
m-138 -82 c11 -12 15 -27 12 -39 -4 -13 -1 -22 9 -25 8 -4 12 -13 9 -22 -9
-22 26 -32 41 -12 8 11 26 17 50 17 l38 0 -7 -50 c-5 -40 -4 -52 8 -56 8 -3
13 -11 10 -18 -3 -7 7 -21 21 -30 15 -10 24 -24 21 -31 -2 -7 2 -16 11 -19 10
-4 13 -14 9 -30 -4 -18 0 -28 19 -40 21 -14 25 -24 23 -54 l-3 -37 54 -3 c41
-2 57 1 63 12 5 9 22 16 39 16 28 0 30 -2 27 -32 -2 -22 -8 -33 -19 -33 -23 0
-49 -24 -43 -39 3 -8 -2 -16 -11 -20 -12 -4 -14 -14 -10 -40 6 -30 3 -37 -19
-51 -23 -15 -26 -24 -26 -70 0 -38 4 -55 15 -59 25 -9 18 -66 -12 -98 -32 -34
-66 -36 -88 -6 -8 13 -23 23 -33 23 -14 0 -17 10 -17 57 0 59 -12 83 -43 83
-14 0 -17 9 -17 47 0 49 -14 73 -43 73 -24 0 -28 42 -6 66 13 15 25 17 55 13
27 -5 39 -3 39 5 0 6 -7 14 -15 17 -22 9 -21 90 2 98 14 6 12 11 -13 37 -25
26 -33 29 -69 24 -37 -6 -43 -3 -79 33 -21 22 -36 45 -32 50 3 5 -1 13 -10 16
-11 4 -14 17 -12 43 3 33 6 38 26 35 12 -2 22 -1 22 3 0 10 -25 50 -39 61 -8
6 -11 16 -8 21 4 6 0 13 -8 17 -9 3 -15 18 -15 36 0 26 3 30 28 30 16 0 37 -9
46 -19z"/>
<path d="M8118 19603 c-31 -16 -36 -37 -12 -51 9 -5 14 -18 12 -33 -4 -29 -46
-39 -63 -15 -9 11 -26 15 -66 13 -48 -2 -54 0 -54 18 0 13 -8 21 -24 23 -21 3
-23 1 -18 -24 5 -30 -14 -53 -45 -54 -10 0 -18 -7 -18 -16 0 -15 9 -16 69 -10
72 6 95 -4 96 -43 0 -13 11 -16 50 -16 43 0 50 3 50 20 0 27 44 34 61 10 8
-11 20 -15 30 -11 10 4 22 0 30 -11 12 -17 13 -17 19 -1 5 13 14 16 32 12 28
-7 73 13 73 33 0 7 -11 13 -24 13 -17 0 -23 5 -22 18 1 13 -7 17 -29 17 -27 0
-30 3 -30 30 0 22 -5 30 -17 30 -10 0 -30 14 -45 31 -27 30 -29 31 -55 17z"/>
<path d="M9821 18436 c-7 -13 -20 -23 -30 -22 -9 0 -16 -6 -16 -14 0 -8 -6
-19 -12 -23 -7 -4 -13 -17 -13 -29 0 -19 4 -20 49 -15 40 5 51 3 55 -10 6 -14
11 -12 36 12 l30 29 -30 31 c-16 17 -30 39 -30 48 0 25 -25 21 -39 -7z"/>
<path d="M10430 18430 c0 -5 -35 -10 -77 -12 -77 -3 -78 -3 -81 -30 -2 -20 -9
-28 -23 -28 -10 0 -19 -7 -19 -15 0 -19 53 -20 69 -1 7 8 21 12 31 9 12 -3 22
1 26 10 4 12 14 15 35 10 21 -4 36 0 49 12 24 21 26 55 5 55 -8 0 -15 -4 -15
-10z"/>
<path d="M10612 18308 c3 -29 0 -33 -25 -36 -18 -2 -29 2 -33 12 -4 12 -20 16
-55 16 -50 0 -60 -8 -35 -29 8 -7 12 -20 9 -30 -5 -19 21 -46 46 -46 11 0 16
-9 16 -30 0 -23 -4 -30 -20 -30 -17 0 -20 -6 -17 -44 l4 -43 -84 3 -83 4 0
-50 c0 -44 -2 -50 -20 -48 -25 3 -65 -17 -65 -32 0 -18 45 -38 70 -30 27 9 60
-19 60 -52 0 -18 -5 -23 -25 -23 -16 0 -25 -6 -25 -15 0 -8 8 -15 18 -15 10 0
22 -3 26 -7 4 -5 20 -8 34 -8 20 0 27 -5 27 -20 0 -13 8 -21 24 -23 22 -3 23
-1 18 26 -10 51 16 65 115 61 83 -4 83 -4 80 20 -3 33 25 61 60 61 29 0 29 0
26 -52 -3 -51 -2 -53 22 -52 14 1 30 -6 37 -15 11 -15 12 -14 18 2 5 11 18 17
37 17 28 0 30 -2 25 -29 -4 -20 -1 -33 12 -45 23 -21 97 -22 105 0 8 21 61 15
61 -7 0 -9 6 -24 14 -33 18 -21 96 -22 105 -1 8 21 52 19 61 -2 6 -17 7 -17
20 0 17 23 60 19 60 -5 0 -9 11 -28 25 -43 22 -24 29 -25 77 -19 44 5 54 3 59
-10 5 -14 16 -15 69 -10 58 6 63 5 79 -17 9 -13 24 -24 34 -24 10 0 17 -8 17
-20 0 -13 7 -20 20 -20 15 0 19 -6 17 -23 -4 -25 15 -30 24 -7 8 20 70 20 78
0 4 -12 12 -11 46 7 44 24 54 51 18 46 -15 -2 -23 2 -23 12 0 8 -4 18 -10 22
-5 4 -10 24 -10 45 0 31 -4 38 -19 38 -11 0 -21 5 -23 12 -3 7 -10 10 -17 7
-8 -3 -25 10 -40 28 -25 33 -26 33 -113 33 l-88 0 0 30 c0 26 -4 30 -28 30
-17 0 -35 8 -43 20 -10 14 -27 20 -52 20 -30 0 -37 4 -37 20 0 17 -8 21 -44
23 -32 2 -47 -1 -53 -12 -5 -9 -22 -16 -38 -16 -26 0 -30 4 -30 29 0 16 6 31
15 35 8 3 15 11 15 17 0 8 -15 10 -49 5 -40 -5 -52 -3 -59 9 -6 12 -20 15 -53
13 -36 -2 -44 -6 -44 -23 0 -15 -8 -21 -34 -23 -48 -5 -95 40 -86 84 6 33 -13
59 -44 59 -9 0 -16 7 -16 15 0 8 -5 18 -12 23 -7 4 -10 14 -7 22 9 23 -26 32
-42 11 -15 -21 -59 -18 -59 4 0 8 -6 19 -12 23 -7 4 -13 19 -13 32 0 20 5 25
25 25 16 0 25 6 25 16 0 14 -7 16 -40 11 -25 -3 -43 -1 -48 6 -4 7 -14 12 -22
12 -9 0 -14 8 -13 20 3 27 -17 65 -34 65 -10 0 -13 -10 -11 -32z m52 -169 c24
-48 85 -106 123 -115 34 -8 63 -32 63 -51 0 -8 11 -31 25 -51 l25 -37 -21 -3
c-15 -3 -37 12 -73 47 -64 63 -90 66 -150 16 -34 -27 -52 -35 -84 -35 -23 0
-58 -8 -78 -17 l-36 -18 -24 28 c-31 37 -31 57 2 57 59 0 103 41 151 142 20
43 42 78 48 78 5 0 19 -18 29 -41z m508 -307 c38 -35 33 -62 -11 -62 -50 0
-115 69 -78 83 29 12 59 5 89 -21z m286 -109 c2 -8 -5 -13 -16 -13 -28 0 -52
10 -52 22 0 14 63 5 68 -9z"/>
<path d="M9794 17485 c-4 -10 -14 -13 -29 -9 -15 4 -24 0 -28 -10 -5 -13 -15
-15 -47 -10 -41 7 -55 -7 -24 -24 9 -5 14 -18 12 -33 -2 -19 -9 -24 -31 -24
-16 0 -36 -9 -45 -20 -15 -17 -27 -20 -86 -17 -40 2 -73 -1 -79 -7 -6 -6 -24
-11 -39 -11 -17 0 -28 -5 -28 -13 0 -27 44 -38 135 -35 82 3 90 5 90 23 0 18
6 20 66 17 55 -3 67 -1 73 13 4 12 13 15 28 11 16 -4 31 2 50 21 31 30 36 51
13 59 -8 4 -15 15 -15 25 0 11 7 22 15 25 8 4 15 12 15 20 0 19 -39 18 -46 -1z"/>
<path d="M9106 16901 c-9 -10 -16 -25 -14 -32 2 -10 -5 -13 -25 -11 -17 2 -29
-3 -33 -12 -4 -11 -14 -13 -35 -9 -34 6 -69 -18 -69 -49 0 -15 8 -18 50 -18
36 0 52 4 56 15 4 8 16 15 29 15 13 0 25 -7 29 -15 8 -21 29 -19 50 4 15 16
15 20 3 28 -16 9 -12 73 4 73 5 0 9 7 9 15 0 21 -34 19 -54 -4z"/>
<path d="M10430 16565 c0 -8 7 -15 15 -15 8 0 15 7 15 15 0 8 -7 15 -15 15 -8
0 -15 -7 -15 -15z"/>
<path d="M19312 19519 c-47 -14 -154 -125 -172 -178 -12 -39 -12 -43 8 -64 26
-28 27 -40 6 -57 -24 -20 -44 -78 -38 -108 4 -18 -3 -45 -20 -79 -28 -55 -34
-121 -14 -153 11 -17 7 -25 -30 -63 -35 -36 -42 -49 -42 -83 0 -34 6 -46 41
-79 35 -35 39 -44 34 -70 -4 -16 -8 -52 -10 -78 -2 -32 -10 -56 -24 -71 -31
-33 -27 -76 9 -111 27 -26 30 -35 30 -90 0 -60 0 -61 53 -112 65 -63 85 -70
136 -44 52 27 85 75 84 120 -3 117 -15 292 -22 331 -5 25 -8 61 -7 80 2 19 -2
45 -7 57 -15 34 -2 64 56 128 30 33 58 71 62 85 5 14 8 66 7 115 -1 79 2 94
23 126 40 62 59 132 52 202 -7 72 -24 111 -66 152 -26 24 -93 57 -111 54 -3 0
-20 -5 -38 -10z m85 -91 c4 -7 15 -13 23 -13 10 0 15 -9 14 -25 -1 -14 5 -29
12 -33 20 -12 19 -116 -1 -123 -10 -4 -13 -14 -9 -28 6 -24 -17 -51 -45 -51
-14 0 -16 -17 -12 -143 l3 -144 -43 4 -44 3 3 -37 c2 -30 -2 -40 -22 -53 -14
-9 -23 -22 -20 -29 9 -22 -57 -59 -113 -64 l-53 -4 0 39 c0 46 24 75 61 71 18
-2 24 2 24 17 0 15 7 20 30 20 41 0 47 31 8 47 -15 6 -35 12 -43 12 -12 1 -15
15 -15 61 0 47 3 60 15 60 8 0 18 4 22 10 4 5 21 8 38 7 22 -3 30 1 30 12 0
10 -9 16 -25 16 -22 0 -25 3 -19 24 4 16 1 25 -10 29 -10 4 -16 18 -16 38 0
31 1 31 39 25 29 -4 42 -2 48 8 4 7 19 13 33 12 21 -1 25 3 25 29 0 28 -2 30
-40 30 -33 0 -40 3 -40 20 0 13 -7 20 -20 20 -16 0 -20 7 -20 30 0 21 5 30 16
30 22 0 50 25 43 37 -3 5 2 18 12 29 20 22 98 27 111 7z m-143 -830 c-1 -57 2
-78 12 -82 20 -8 19 -92 -1 -100 -20 -7 -19 -33 2 -44 13 -8 15 -20 10 -70 -5
-48 -3 -61 8 -66 20 -7 19 -45 -2 -68 -19 -21 -58 -24 -70 -5 -4 6 -15 12 -23
12 -12 0 -15 15 -15 77 0 79 -10 103 -43 103 -24 0 -28 48 -6 66 9 8 29 14 43
14 19 0 26 5 26 20 0 13 -7 20 -20 20 -17 0 -20 7 -20 50 0 43 3 50 20 50 17
0 20 6 17 44 -4 47 8 63 43 59 18 -3 20 -10 19 -80z"/>
<path d="M18350 18901 c-8 -6 -37 -11 -65 -11 -52 0 -110 -17 -175 -50 -38
-19 -60 -28 -175 -70 -78 -28 -106 -41 -127 -58 -17 -14 -56 -25 -148 -41 -56
-10 -127 -34 -205 -70 -33 -15 -80 -33 -105 -40 -25 -7 -73 -21 -106 -32 -34
-10 -66 -19 -71 -19 -5 0 -9 23 -9 51 1 48 -2 53 -39 85 -22 18 -48 34 -59 34
-30 0 -94 -57 -101 -91 l-7 -31 -42 41 c-35 34 -48 41 -82 41 -32 0 -46 -6
-70 -32 -66 -71 -69 -136 -11 -221 10 -15 8 -21 -12 -38 -37 -31 -48 -24 -53
33 -5 45 -10 56 -44 84 l-38 32 36 40 c65 71 60 139 -14 208 -32 30 -37 31
-123 32 -84 0 -92 -1 -118 -26 -31 -29 -57 -82 -57 -116 0 -13 19 -41 45 -66
25 -24 45 -49 45 -56 0 -18 -71 -78 -110 -93 -67 -25 -85 -35 -118 -66 -36
-32 -62 -83 -62 -119 0 -13 19 -40 45 -66 42 -42 51 -66 19 -53 -9 3 -27 -6
-44 -22 -25 -24 -33 -26 -72 -21 -81 13 -113 8 -177 -28 -34 -20 -92 -46 -129
-58 -79 -26 -134 -72 -152 -129 l-13 -40 48 -49 c27 -28 56 -50 65 -50 9 0 21
-5 28 -12 9 -9 21 -7 51 10 21 12 52 22 68 22 15 0 53 9 83 20 58 21 110 26
110 11 0 -5 -8 -12 -18 -15 -18 -6 -281 -268 -320 -320 -31 -41 -52 -29 -52
32 0 80 -27 163 -65 201 -32 33 -38 35 -100 35 -63 0 -67 -2 -106 -40 -22 -21
-63 -67 -91 -102 -51 -64 -62 -91 -77 -202 -19 -130 -45 -175 -141 -249 -42
-31 -80 -94 -80 -129 0 -16 9 -37 20 -47 11 -10 20 -28 20 -41 0 -13 5 -26 10
-29 6 -4 10 -57 10 -125 0 -68 -4 -121 -10 -125 -5 -3 -10 -13 -10 -22 0 -9
-9 -27 -21 -39 -16 -18 -28 -21 -59 -17 -33 5 -45 1 -78 -25 -24 -19 -43 -46
-52 -71 -12 -38 -11 -41 19 -86 36 -54 39 -75 11 -100 -28 -25 -25 -71 5 -107
14 -16 25 -33 25 -37 0 -4 -17 -24 -38 -44 -35 -34 -41 -37 -66 -27 -57 21
-132 -26 -156 -101 -12 -36 -12 -41 8 -62 27 -28 27 -39 4 -61 -11 -9 -25 -34
-32 -56 l-13 -39 48 -56 c62 -73 122 -112 147 -96 22 14 165 15 173 1 14 -22
84 -42 158 -46 43 -2 86 -8 97 -14 10 -5 29 -10 42 -10 13 0 48 -17 78 -38 31
-21 67 -42 82 -45 25 -7 88 -68 88 -87 0 -5 -12 -12 -27 -15 -108 -23 -138
-38 -224 -116 -182 -167 -179 -164 -179 -202 0 -20 -5 -39 -10 -42 -6 -3 -30
10 -54 29 -23 20 -51 36 -60 36 -29 0 -130 -57 -162 -92 -34 -36 -44 -64 -51
-151 -4 -51 -10 -63 -52 -110 -25 -28 -54 -69 -64 -89 -15 -35 -20 -38 -60
-38 -37 0 -48 -6 -79 -37 -47 -50 -64 -86 -73 -155 -5 -43 -3 -64 9 -89 20
-39 21 -55 2 -40 -20 17 -77 2 -109 -28 -61 -56 -76 -162 -33 -229 14 -20 28
-49 32 -65 6 -27 77 -97 99 -97 18 0 95 70 95 86 0 8 5 14 10 14 14 0 12 -20
-5 -50 -8 -14 -14 -42 -15 -64 0 -29 -9 -49 -38 -85 -79 -97 -80 -130 -7 -205
30 -30 55 -59 55 -64 0 -5 -13 -21 -29 -36 -31 -29 -51 -27 -81 8 -24 30 -62
19 -127 -36 -35 -29 -76 -64 -93 -76 -56 -43 -78 -145 -44 -198 15 -22 15 -27
2 -42 -8 -9 -20 -31 -27 -48 -11 -27 -9 -38 13 -85 33 -73 105 -139 151 -139
17 0 63 30 107 68 14 13 34 22 45 20 16 -3 18 -13 17 -76 0 -58 -5 -78 -22
-102 -12 -16 -22 -40 -22 -53 0 -13 -13 -36 -29 -51 -15 -15 -34 -45 -41 -67
-12 -37 -12 -41 10 -64 22 -24 24 -33 23 -123 -1 -54 -7 -106 -14 -119 -16
-29 -1 -76 42 -140 16 -23 29 -49 29 -58 0 -25 64 -97 104 -119 l35 -19 36 27
c19 15 59 32 88 37 132 25 141 25 199 -14 37 -26 64 -33 168 -47 104 -13 122
-20 172 -66 25 -24 58 -46 72 -50 14 -3 26 -12 26 -18 0 -14 66 -79 97 -95 12
-6 47 -11 78 -11 52 0 61 4 122 50 36 28 74 50 85 50 22 0 62 -21 143 -75 63
-42 87 -48 269 -63 80 -7 91 -11 105 -33 26 -40 97 -109 114 -109 8 0 29 11
45 25 17 14 34 25 39 25 5 0 27 -18 48 -41 76 -77 141 -90 205 -39 42 33 52
35 80 18 15 -10 27 -10 55 0 34 13 37 12 82 -25 71 -57 125 -73 187 -53 17 5
44 12 59 15 15 3 44 20 63 38 29 26 37 42 41 81 5 44 8 47 29 42 12 -3 26 -2
29 4 10 17 48 11 90 -15 94 -57 95 -57 125 -45 38 16 73 56 95 110 10 25 24
52 31 60 18 22 37 105 31 136 -3 16 5 43 21 72 14 26 31 58 38 72 8 14 14 36
14 50 1 21 15 95 45 230 4 14 10 72 14 130 7 87 13 113 36 153 37 66 30 103
-35 168 -64 64 -99 66 -152 12 -48 -51 -64 -88 -66 -152 -1 -30 -7 -60 -13
-68 -6 -7 -9 -22 -6 -34 3 -12 1 -33 -5 -48 -16 -39 -30 -120 -29 -171 0 -24
-6 -55 -14 -67 -8 -12 -15 -42 -15 -66 0 -25 -6 -49 -12 -54 -16 -12 -252 -9
-333 4 -33 5 -77 18 -98 28 -32 16 -42 17 -70 7 -54 -20 -117 -15 -166 13 -30
17 -59 25 -95 25 -80 1 -135 15 -164 43 -36 35 -100 45 -136 22 l-26 -18 -59
56 c-32 31 -69 58 -82 60 -112 21 -138 24 -164 20 -17 -3 -39 -12 -50 -19 -35
-25 -93 -17 -149 19 -28 19 -76 42 -106 51 -30 10 -62 24 -70 31 -8 7 -35 16
-60 20 -44 7 -100 46 -100 70 0 6 11 22 24 34 23 22 42 65 37 85 -1 5 15 26
36 48 34 34 37 44 41 103 7 101 -2 128 -63 194 -55 58 -55 59 -55 122 0 38 -6
76 -16 94 -10 20 -13 42 -9 67 5 25 2 48 -9 69 -9 18 -16 43 -16 57 0 14 -9
36 -21 48 -28 30 -31 124 -5 178 11 23 19 64 20 97 1 44 6 63 22 81 30 32 38
63 36 132 0 40 6 74 19 102 24 53 23 68 -1 119 -27 55 -25 83 10 134 17 24 30
49 30 56 0 7 10 20 21 31 31 28 41 60 43 140 1 39 6 78 12 85 13 16 18 98 13
189 -2 36 -3 129 -4 206 0 160 3 169 79 203 63 28 91 64 91 116 0 33 -6 50
-26 72 -15 15 -30 39 -34 53 -4 14 -15 34 -25 45 -10 11 -24 39 -31 62 -6 24
-20 50 -31 59 -10 10 -18 22 -18 28 0 5 -18 29 -41 52 l-40 41 49 51 c70 71
87 112 75 176 -6 28 -11 84 -12 124 -2 64 1 79 22 111 34 50 39 73 41 161 1
48 6 83 14 93 8 10 11 27 8 44 -4 17 0 40 9 58 16 29 39 211 29 227 -12 20 23
87 71 139 60 63 63 72 68 247 3 92 6 105 28 128 21 23 24 35 24 102 0 75 1 77
25 80 14 2 39 10 56 18 19 8 44 11 62 8 33 -7 76 12 106 45 11 12 24 21 31 21
7 0 20 -9 31 -21 34 -38 72 -52 104 -39 51 21 81 63 89 124 9 64 17 75 81 101
25 10 52 24 60 31 8 6 33 18 55 25 41 14 120 62 130 80 4 5 20 9 36 9 36 0 62
13 107 51 30 27 39 29 118 29 65 0 94 5 124 20 22 11 58 20 81 20 35 0 51 7
90 40 26 22 54 40 61 40 8 0 42 18 76 40 33 22 69 40 79 41 10 0 32 9 48 19
71 45 107 60 145 60 22 0 58 9 80 20 28 14 59 20 109 20 61 0 76 4 113 29 26
17 61 31 88 33 25 3 52 8 61 12 41 18 57 -127 20 -189 -15 -27 -21 -52 -21
-98 1 -75 21 -119 72 -160 l38 -30 36 19 c20 10 46 33 59 49 29 39 65 139 58
164 -3 11 1 37 8 58 8 21 14 43 14 48 1 6 5 31 9 57 8 53 19 184 20 240 0 30
-7 45 -34 73 -19 19 -40 35 -47 35 -16 0 -16 10 -2 47 6 15 12 45 14 66 1 24
11 48 26 63 18 19 24 37 24 70 0 37 -6 49 -37 80 -35 36 -38 37 -130 41 -55 2
-99 0 -108 -6z m208 -113 c-2 -21 -8 -33 -18 -33 -8 0 -18 -5 -23 -12 -4 -7
-14 -10 -22 -7 -23 9 -32 -26 -11 -42 13 -9 16 -23 14 -56 -3 -42 -4 -43 -35
-40 -34 3 -46 -14 -18 -24 8 -4 15 -16 15 -29 0 -26 -34 -60 -50 -50 -16 10
-60 -15 -60 -33 0 -12 18 -13 115 -7 l115 7 0 -31 c0 -19 -6 -34 -15 -37 -12
-5 -14 -16 -9 -56 6 -41 4 -51 -12 -63 -18 -13 -18 -14 -1 -20 21 -9 23 -53 2
-61 -12 -5 -14 -15 -9 -40 5 -25 2 -35 -9 -40 -12 -4 -14 -18 -9 -69 4 -54 2
-66 -12 -71 -11 -4 -15 -13 -10 -26 8 -27 -22 -58 -58 -58 l-28 0 0 80 c0 74
2 81 25 96 14 9 22 20 19 26 -3 5 2 15 12 23 18 13 18 14 2 20 -23 9 -25 70
-2 79 22 8 13 41 -11 41 -27 0 -34 61 -9 79 26 19 11 50 -20 42 -16 -4 -26 -1
-30 10 -9 24 -61 15 -61 -11 0 -18 -7 -20 -80 -20 -67 0 -80 -3 -80 -16 0 -9
-7 -24 -15 -34 -13 -15 -26 -17 -98 -12 -69 5 -84 3 -89 -9 -3 -8 -11 -13 -18
-10 -8 3 -16 -2 -19 -11 -5 -12 -16 -14 -61 -8 -46 5 -56 4 -61 -10 -4 -9 -12
-14 -19 -11 -8 3 -16 -2 -19 -11 -4 -8 -13 -13 -20 -10 -9 4 -21 -5 -31 -20
-14 -21 -22 -24 -51 -18 -25 4 -36 2 -40 -9 -3 -8 -11 -13 -18 -10 -15 6 -41
-22 -41 -45 0 -23 -65 -28 -77 -7 -5 9 -22 16 -38 16 -31 0 -41 -17 -15 -26
20 -8 19 -43 -2 -66 -21 -23 -59 -23 -68 0 -6 15 -7 16 -18 1 -7 -9 -23 -16
-37 -15 -18 1 -25 -4 -25 -19 0 -19 -7 -20 -118 -20 -67 0 -121 -4 -125 -10
-4 -5 -14 -10 -22 -10 -10 0 -15 -10 -15 -30 0 -28 -2 -30 -44 -33 -32 -2 -47
1 -53 12 -5 9 -18 16 -30 16 -17 0 -20 -4 -15 -29 5 -22 0 -34 -23 -56 -19
-18 -34 -25 -48 -21 -13 5 -22 1 -26 -10 -4 -11 -13 -14 -31 -10 -14 4 -27 1
-32 -6 -4 -7 -15 -13 -23 -13 -8 0 -15 -9 -15 -20 0 -19 -6 -20 -82 -17 -81 3
-103 -6 -67 -26 24 -13 15 -77 -11 -77 -12 0 -20 -7 -19 -17 1 -12 -9 -17 -38
-20 -32 -3 -41 1 -54 20 -18 27 -49 25 -49 -3 0 -16 -7 -20 -30 -20 -29 0 -30
-1 -27 -43 l3 -43 -43 3 c-38 3 -43 6 -40 26 5 32 -13 27 -44 -14 -24 -31 -31
-35 -60 -30 -24 5 -33 2 -38 -10 -5 -12 -14 -15 -38 -10 -44 9 -68 -15 -68
-69 0 -34 5 -46 25 -59 20 -13 25 -25 25 -57 l0 -40 -57 4 c-50 4 -58 7 -61
26 -4 27 -32 28 -32 1 0 -11 -4 -20 -10 -20 -5 0 -10 -6 -10 -13 0 -18 45 -41
60 -32 6 4 20 -1 31 -11 24 -21 26 -82 3 -91 -11 -4 -14 -13 -10 -29 6 -21 3
-24 -19 -24 -16 0 -25 -6 -25 -16 0 -12 8 -15 33 -12 31 3 32 2 35 -42 2 -28
-1 -48 -10 -55 -7 -5 -13 -17 -13 -25 0 -8 -7 -15 -15 -15 -8 0 -18 -5 -23
-12 -4 -7 -13 -10 -21 -7 -22 8 -41 -27 -41 -75 0 -42 -2 -46 -22 -43 -26 4
-31 -15 -8 -24 21 -8 19 -64 -2 -80 -17 -12 -17 -13 0 -19 22 -9 25 -93 3
-101 -8 -3 -13 -11 -10 -19 3 -7 -2 -15 -11 -19 -14 -5 -15 -15 -10 -61 6 -44
4 -56 -8 -61 -13 -5 -14 -21 -10 -97 6 -102 -3 -122 -56 -122 -24 0 -26 -4
-29 -44 -2 -32 1 -47 12 -53 9 -5 16 -20 16 -33 0 -20 -5 -25 -25 -25 -16 0
-25 -6 -25 -15 0 -10 10 -15 26 -15 25 0 26 -2 20 -44 -5 -34 -4 -45 9 -49 35
-14 7 -81 -34 -82 -9 0 -15 -6 -13 -14 4 -20 -28 -51 -52 -51 -11 0 -30 12
-42 27 -21 26 -22 26 -40 9 -17 -17 -17 -19 -1 -31 22 -16 22 -51 0 -60 -16
-6 -16 -8 -3 -18 8 -7 15 -19 15 -27 0 -10 10 -15 30 -15 23 0 30 -4 30 -20 0
-16 7 -20 30 -20 26 0 30 -4 30 -27 0 -31 18 -53 43 -53 14 0 17 -10 17 -50 0
-43 3 -50 20 -50 11 0 20 -7 20 -15 0 -8 6 -20 13 -25 7 -6 11 -25 10 -45 -3
-34 -2 -35 30 -32 31 3 32 2 32 -34 l0 -37 -49 6 c-43 5 -51 3 -72 -19 -13
-14 -24 -38 -24 -52 0 -19 -5 -27 -17 -27 -10 0 -25 -8 -35 -17 -15 -16 -15
-18 0 -24 21 -8 22 -53 2 -60 -9 -4 -15 -19 -15 -39 0 -20 6 -35 15 -39 11 -4
15 -21 15 -61 l0 -55 -49 0 c-28 0 -53 5 -56 10 -10 17 -25 11 -25 -9 0 -11
-5 -23 -10 -26 -6 -4 -9 -18 -8 -33 2 -21 -1 -27 -17 -27 -17 0 -20 -7 -20
-40 0 -29 4 -40 15 -40 8 0 20 -6 26 -14 15 -19 46 -6 42 16 -2 14 3 17 20 15
25 -4 30 15 7 24 -10 4 -15 20 -15 50 l0 44 46 0 c44 0 46 -1 40 -24 -4 -16
-1 -26 9 -30 20 -7 20 -75 0 -82 -12 -5 -14 -17 -9 -57 5 -39 4 -53 -8 -61
-12 -9 -15 -31 -14 -96 l1 -85 -30 0 c-28 0 -30 -2 -27 -35 1 -20 -3 -39 -10
-45 -7 -5 -13 -17 -13 -25 0 -9 -11 -16 -27 -18 -27 -3 -28 -2 -28 42 0 34 -4
46 -15 46 -22 0 -21 -98 1 -107 13 -5 15 -20 12 -82 l-3 -76 33 3 c30 3 32 1
32 -27 0 -20 -8 -35 -22 -46 -21 -14 -23 -23 -23 -113 l0 -97 -30 0 -30 0 0
-100 c0 -93 -1 -100 -20 -100 -16 0 -20 -7 -20 -37 0 -27 -6 -42 -22 -53 -13
-9 -23 -21 -23 -26 0 -6 10 -9 23 -7 19 3 22 -1 22 -34 0 -27 6 -42 23 -53 26
-19 29 -60 5 -69 -15 -6 -15 -8 0 -24 10 -9 25 -17 35 -17 12 0 17 -8 17 -30
0 -21 -5 -30 -16 -30 -23 0 -51 -26 -45 -42 3 -8 -5 -15 -21 -19 -21 -6 -30
-2 -45 19 -18 24 -20 25 -48 10 -30 -15 -42 -55 -20 -68 6 -3 10 -15 10 -26 0
-22 15 -25 27 -6 4 7 24 13 43 13 25 -1 35 3 35 14 0 17 26 28 73 29 32 1 32
1 32 -49 0 -28 -5 -52 -12 -57 -13 -8 -38 -47 -38 -58 0 -4 10 -5 23 -3 19 3
22 -2 22 -27 0 -26 4 -30 26 -30 32 0 60 -22 57 -44 -2 -10 4 -16 17 -16 18 0
20 -7 20 -80 0 -64 -3 -80 -15 -80 -8 0 -18 -4 -22 -10 -4 -5 -15 -10 -25 -10
-10 0 -18 -7 -18 -15 0 -8 -7 -20 -15 -27 -13 -10 -13 -12 3 -18 11 -5 17 -18
17 -36 0 -27 -3 -29 -36 -29 -23 0 -41 6 -49 17 -18 25 -46 9 -43 -24 3 -26 1
-28 -35 -28 -21 0 -41 -5 -45 -12 -9 -14 -37 -12 -54 5 -18 18 -28 15 -28 -8
0 -11 -4 -20 -10 -20 -5 0 -10 -7 -10 -16 0 -14 8 -16 50 -12 36 4 50 1 54 -9
4 -10 15 -12 41 -7 26 5 36 2 41 -9 4 -13 16 -15 55 -10 l49 6 0 -31 c0 -17
-6 -32 -15 -36 -8 -3 -15 -11 -15 -17 0 -8 12 -10 39 -5 34 5 41 3 56 -21 16
-24 19 -25 30 -9 9 12 24 16 47 14 31 -3 33 -5 30 -35 -3 -34 14 -46 24 -18 8
19 53 19 60 0 4 -8 11 -12 17 -8 5 3 15 -1 21 -9 6 -8 22 -15 36 -14 19 1 25
-4 25 -19 0 -11 7 -20 15 -20 8 0 19 -6 24 -13 5 -9 19 -12 41 -8 26 5 34 3
40 -11 6 -16 8 -16 18 -3 7 8 19 15 27 15 8 0 15 9 15 20 0 18 7 20 60 20 56
0 60 -1 57 -22 -4 -26 15 -31 24 -8 8 20 63 19 86 -2 10 -9 18 -27 18 -40 0
-18 -5 -23 -25 -23 -16 0 -25 -6 -25 -15 0 -8 8 -15 18 -15 10 0 23 -5 29 -11
5 -5 38 -9 74 -7 56 3 64 5 64 23 0 24 43 34 59 13 6 -7 18 -13 26 -13 10 0
15 -10 15 -30 l0 -30 66 3 c53 2 68 0 72 -12 8 -21 34 -20 45 0 13 23 57 15
57 -11 0 -15 7 -20 29 -20 16 0 31 -6 33 -12 7 -19 109 -17 117 2 4 10 20 15
50 15 38 0 48 -4 62 -25 16 -24 20 -25 80 -19 50 5 65 4 69 -8 8 -19 172 -20
179 -1 9 22 52 15 70 -12 20 -31 38 -32 34 -2 -3 19 2 22 27 22 20 0 30 5 30
15 0 8 5 18 10 22 6 4 10 42 10 85 l0 77 50 0 c46 -1 50 -3 53 -28 2 -17 -2
-28 -12 -32 -9 -3 -13 -10 -10 -16 3 -5 -2 -15 -12 -23 -18 -13 -18 -14 -1
-20 29 -12 20 -51 -18 -82 -25 -20 -33 -33 -29 -49 4 -15 -2 -26 -22 -39 -25
-16 -26 -19 -10 -30 13 -10 16 -25 14 -67 -3 -45 -6 -53 -23 -53 -15 0 -20 -7
-20 -29 0 -16 -5 -31 -12 -33 -8 -3 -10 -15 -6 -34 5 -29 5 -29 -42 -29 l-47
0 6 45 c7 41 5 45 -13 45 -11 0 -24 -7 -29 -16 -5 -9 -18 -14 -33 -12 -21 3
-24 8 -21 36 2 23 -1 32 -11 32 -15 0 -30 -24 -31 -50 -1 -8 -11 -16 -24 -18
-28 -4 -63 24 -55 44 8 22 -28 30 -42 10 -10 -13 -25 -16 -67 -14 -45 3 -53 6
-53 23 0 11 -7 20 -15 20 -8 0 -19 6 -23 13 -11 17 -74 15 -81 -3 -7 -19 -55
-19 -62 0 -4 10 -14 13 -29 9 -14 -3 -26 0 -32 8 -4 7 -15 13 -23 13 -8 0 -15
9 -15 20 0 19 -6 20 -77 17 -64 -3 -79 -1 -84 12 -8 21 -70 22 -78 1 -8 -21
-94 -21 -102 0 -5 12 -18 14 -69 9 -52 -5 -63 -4 -68 10 -4 9 -13 16 -22 16
-8 0 -15 5 -15 10 0 6 -7 10 -15 10 -23 0 -21 -92 3 -113 10 -10 22 -14 26
-10 4 5 13 1 19 -7 7 -8 19 -15 27 -15 10 0 16 -12 18 -36 3 -35 2 -36 -35
-42 -41 -7 -75 13 -71 42 3 14 -13 16 -117 16 -109 0 -120 2 -117 18 4 25 -28
34 -44 13 -17 -23 -79 -19 -79 6 0 25 -22 43 -53 43 -20 0 -27 5 -27 20 0 11
-7 20 -15 20 -8 0 -19 6 -23 13 -12 19 -93 16 -101 -4 -4 -11 -13 -14 -30 -10
-24 6 -63 -24 -49 -37 3 -4 -2 -16 -12 -27 -15 -17 -31 -20 -98 -20 l-80 0 7
39 c4 30 2 42 -13 56 -11 9 -24 14 -30 11 -5 -3 -11 0 -14 6 -2 8 -20 13 -43
13 -39 0 -39 0 -39 40 0 29 -4 40 -15 40 -8 0 -19 6 -23 13 -6 9 -21 11 -52 7
-35 -6 -45 -4 -53 11 -6 11 -16 15 -27 10 -11 -4 -22 0 -31 11 -12 17 -13 17
-19 1 -9 -22 -53 -24 -61 -3 -5 11 -15 14 -39 9 -29 -5 -36 -2 -59 29 -26 34
-30 35 -91 35 -45 0 -65 -4 -69 -14 -6 -16 -76 -20 -76 -4 0 20 -31 23 -50 5
-14 -12 -17 -25 -13 -46 5 -27 3 -29 -24 -29 -36 0 -67 31 -59 58 5 13 1 22
-10 26 -9 3 -14 13 -11 20 4 9 -5 21 -19 31 -14 9 -23 23 -20 30 2 7 -2 16
-10 19 -10 4 -14 16 -12 33 2 23 7 27 26 25 25 -4 30 15 7 24 -10 4 -15 20
-15 49 0 29 5 45 15 49 20 7 19 35 -1 43 -12 4 -14 14 -10 38 5 27 2 35 -19
49 -18 12 -25 25 -25 47 0 28 2 30 33 27 25 -2 32 1 32 14 0 10 11 25 24 34
22 16 23 18 7 30 -24 17 -17 59 9 59 17 0 20 6 17 38 -2 24 2 39 10 42 10 4
14 31 13 103 l0 97 -48 -3 c-35 -2 -49 1 -53 12 -8 21 -62 21 -85 0 -10 -9
-16 -21 -13 -28 2 -6 -9 -24 -25 -40 -22 -21 -36 -27 -62 -24 -22 2 -34 8 -34
18 0 8 -6 20 -14 26 -8 6 -11 16 -8 21 4 6 0 13 -8 17 -9 3 -15 18 -15 37 0
29 2 31 28 26 19 -4 35 1 55 18 33 29 35 47 5 43 -17 -2 -23 2 -23 17 0 13 -7
20 -20 20 -18 0 -20 8 -23 63 l-3 62 31 0 c17 0 33 -6 36 -14 3 -8 11 -13 18
-10 15 6 61 -42 61 -64 0 -9 7 -17 15 -17 8 0 19 -6 23 -12 11 -18 36 -16 43
2 8 21 67 19 86 -2 16 -19 14 -78 -3 -89 -20 -12 -7 -24 27 -24 l37 0 -5 50
c-4 36 -1 50 9 54 27 11 10 41 -22 41 -27 0 -30 3 -30 30 0 25 3 30 23 27 29
-4 28 14 -3 34 -21 14 -25 24 -25 66 l0 49 53 -3 52 -3 3 58 c2 44 0 59 -12
63 -9 3 -13 10 -10 16 3 5 -2 18 -12 29 -13 15 -25 18 -47 13 -20 -4 -34 -1
-48 12 -23 20 -25 62 -4 70 8 4 12 10 9 16 -8 13 27 50 42 44 7 -3 14 0 17 7
2 7 12 12 23 12 25 0 34 64 10 77 -23 13 -20 54 6 73 13 8 23 23 23 33 0 13 9
17 36 17 44 0 72 21 63 47 -4 12 0 24 11 32 12 8 16 24 13 56 -3 41 -5 45 -30
45 -36 0 -77 40 -75 74 2 19 -3 26 -16 26 -10 0 -21 5 -25 11 -4 6 -18 11 -32
10 -22 -1 -25 4 -28 37 -3 34 -6 37 -33 37 -27 0 -29 2 -29 40 0 27 5 43 15
46 9 4 13 13 10 23 -3 10 2 32 11 49 12 25 22 32 45 32 26 0 29 -3 29 -30 0
-18 -6 -33 -15 -36 -8 -4 -12 -11 -8 -17 3 -5 -1 -15 -10 -22 -24 -17 -12 -71
17 -79 46 -13 76 -7 76 14 0 11 -7 23 -15 26 -20 8 -19 53 1 61 8 3 13 11 10
18 -3 8 2 16 10 19 12 5 14 16 9 49 -7 46 9 72 44 72 13 0 15 9 13 43 l-4 44
44 -4 c42 -3 43 -2 43 26 0 16 6 31 12 33 10 4 11 23 6 75 -5 57 -3 73 9 82 8
6 15 22 14 36 -1 21 4 25 26 25 17 0 34 9 43 23 11 14 26 22 46 22 25 0 29 -4
29 -29 0 -20 -8 -34 -25 -45 -34 -23 -32 -40 4 -33 20 4 31 2 35 -8 7 -20 65
-19 87 1 10 9 15 21 13 28 -6 15 22 41 45 41 13 0 15 10 13 63 -4 78 14 107
63 98 26 -5 36 0 65 31 21 22 35 47 35 62 0 16 6 26 15 26 8 0 20 6 26 14 6 8
16 11 21 8 6 -4 14 0 17 9 5 12 14 15 40 10 26 -5 35 -3 40 9 5 13 18 15 63
13 46 -2 58 0 58 12 0 8 6 19 13 23 17 11 15 56 -3 63 -8 4 -12 10 -9 16 3 5
-23 36 -59 68 -37 34 -64 67 -63 77 1 15 -6 18 -45 15 -48 -3 -74 13 -74 47 0
11 -9 16 -29 16 -16 0 -31 6 -34 13 -3 9 -14 11 -38 6 -26 -5 -35 -2 -40 10
-5 14 -15 16 -49 11 -33 -6 -43 -4 -48 9 -8 21 -33 21 -45 0 -13 -23 -57 -15
-57 11 0 11 -7 20 -15 20 -8 0 -19 6 -23 13 -6 9 -24 11 -68 6 -51 -6 -62 -4
-73 11 -16 22 -41 15 -41 -11 0 -28 -60 -27 -60 1 -1 11 -7 19 -14 17 -23 -5
-51 29 -51 61 l0 30 80 -6 c65 -5 82 -4 86 8 3 7 11 12 18 9 6 -2 25 9 40 25
25 26 27 31 13 37 -14 5 -17 22 -17 96 l0 91 47 -7 c52 -7 83 11 83 49 0 23
-52 80 -63 69 -11 -12 -47 28 -47 51 0 36 31 56 81 53 36 -2 44 0 44 14 0 10
10 25 23 33 25 18 30 63 7 71 -20 8 -21 90 -1 101 7 4 13 19 12 33 -1 19 4 25
19 25 15 0 20 7 20 28 0 15 6 31 13 36 9 5 11 20 6 48 -5 33 -3 41 12 47 18 7
18 8 0 21 -17 13 -18 23 -12 84 5 58 3 70 -10 75 -11 4 -14 13 -10 30 4 18 0
28 -19 40 -27 18 -34 59 -12 73 6 4 12 15 12 23 0 19 46 26 59 8 6 -7 18 -13
26 -13 8 0 15 -9 15 -20 0 -13 8 -21 23 -23 20 -3 22 1 22 36 0 26 -5 42 -15
46 -19 7 -20 55 -1 62 8 3 13 11 10 19 -3 7 2 15 11 18 11 5 14 14 9 32 -4 18
-2 27 10 31 11 4 14 13 10 29 -4 16 0 26 13 33 10 6 15 14 11 18 -4 4 0 13 10
20 16 12 16 13 0 19 -22 9 -24 53 -3 61 11 5 14 15 10 38 -5 26 -1 36 24 60
16 15 34 25 39 22 14 -9 37 24 37 53 0 25 2 26 74 29 l74 3 -7 -39 c-4 -30 -2
-41 9 -46 20 -7 20 -72 0 -80 -19 -7 -19 -35 0 -42 8 -4 12 -10 9 -16 -3 -5 2
-15 12 -22 11 -9 15 -19 10 -31 -8 -21 20 -56 38 -49 7 3 24 -11 37 -30 34
-50 52 -47 47 7 -3 36 0 42 17 42 17 0 20 6 17 36 -2 27 4 41 23 59 15 14 34
25 43 25 9 0 17 8 17 17 0 22 21 43 43 43 10 0 17 8 17 18 0 10 5 21 10 25 6
4 10 14 10 22 0 8 8 15 17 15 10 0 24 9 32 20 8 11 23 20 33 20 13 0 18 8 18
30 0 30 0 30 59 30 37 0 61 4 63 12 2 7 10 10 17 7 7 -3 21 7 30 21 10 15 24
24 31 21 7 -2 16 2 19 11 5 12 16 14 61 8 45 -5 56 -4 61 9 3 9 10 13 16 10
13 -8 48 25 42 40 -7 19 45 61 74 61 17 0 27 5 27 15 0 8 6 19 13 23 6 4 12
21 12 37 0 23 -4 30 -20 30 -11 0 -23 -6 -26 -14 -3 -8 -11 -13 -19 -10 -7 3
-15 -2 -19 -11 -5 -13 -18 -16 -63 -13 l-58 3 3 -43 4 -43 -34 3 c-28 2 -33 7
-30 26 2 14 -2 22 -11 22 -14 0 -30 -23 -32 -46 -4 -61 -119 -56 -120 5 0 23
-151 26 -160 4 -3 -10 -13 -13 -29 -9 -17 4 -26 1 -30 -10 -5 -12 -18 -15 -63
-12 -52 3 -58 1 -58 -17 0 -23 -40 -34 -58 -16 -6 6 -19 11 -30 11 -15 0 -18
6 -15 33 2 20 8 32 18 32 8 0 19 6 24 13 5 9 19 12 41 8 25 -5 34 -3 39 10 3
9 13 14 20 11 8 -3 17 1 20 10 4 8 13 13 20 10 8 -3 17 -1 19 6 2 7 17 12 33
12 22 0 29 5 29 20 0 17 8 20 48 23 36 2 49 -1 53 -13 4 -10 13 -13 26 -9 12
4 24 0 32 -12 16 -21 51 -12 42 11 -3 8 0 18 7 22 7 5 12 15 12 23 0 12 13 15
58 15 38 0 60 5 66 14 5 7 13 11 19 7 5 -3 13 1 16 10 3 9 13 14 20 11 9 -4
21 5 31 19 9 14 23 23 30 20 7 -2 16 2 19 11 5 11 15 14 40 9 26 -5 35 -3 40
10 4 11 13 14 30 10 17 -4 26 -1 30 10 4 12 13 14 31 10 18 -5 27 -2 32 9 3 9
11 14 18 11 8 -3 16 2 19 11 4 8 13 13 20 10 9 -4 25 8 41 29 15 20 33 33 40
30 7 -2 16 2 19 11 4 8 13 13 20 10 8 -3 17 1 20 9 4 11 18 14 53 12 42 -3 48
-1 48 17 0 18 7 20 67 20 69 0 93 11 93 43 0 14 10 17 58 17 38 0 60 5 66 14
5 7 13 11 19 7 5 -3 13 1 16 10 5 12 14 15 40 10 26 -5 35 -3 40 10 5 13 14
15 41 10 27 -5 37 -3 41 9 4 9 12 14 19 11 8 -3 16 2 19 11 4 8 13 13 20 10 8
-3 17 1 20 10 4 8 13 13 20 10 8 -3 17 1 20 10 4 10 14 13 30 9 17 -4 26 -1
30 10 5 13 15 15 50 10 35 -6 45 -4 50 10 5 13 15 15 50 10 39 -6 45 -4 60 19
10 15 24 24 31 21 7 -2 16 2 19 11 4 8 13 13 20 10 8 -3 17 1 20 10 5 11 15
14 40 9 29 -6 36 -3 51 20 14 22 21 25 51 19 25 -4 36 -2 40 9 3 8 11 13 18
10 7 -3 21 7 30 21 13 20 23 25 41 21 16 -4 25 -1 29 10 5 14 17 16 70 10 52
-5 65 -4 70 9 4 12 26 15 116 15 l111 0 -3 -32z m-2054 -113 c20 -31 38 -32
34 -2 -4 29 35 36 63 11 22 -19 25 -59 7 -71 -7 -4 -13 -15 -13 -23 0 -11 -14
-16 -56 -18 -49 -3 -59 0 -75 20 -11 13 -26 23 -34 23 -10 0 -16 13 -18 43
l-3 42 39 0 c31 0 43 -5 56 -25z m596 -110 c0 -33 -2 -35 -35 -35 -33 0 -35 2
-35 35 0 33 2 35 35 35 33 0 35 -2 35 -35z m-220 -38 c0 -19 -7 -48 -16 -65
-12 -25 -22 -32 -45 -32 l-29 0 0 65 0 65 45 0 c44 0 45 0 45 -33z m118 -39
l25 -27 -27 -11 c-42 -15 -44 -14 -41 38 3 56 5 62 12 42 3 -8 17 -27 31 -42z
m-483 -93 c0 -13 7 -20 20 -20 13 0 20 7 20 20 0 15 8 21 33 23 30 3 32 1 32
-27 0 -16 -6 -34 -14 -38 -7 -4 -13 -19 -12 -33 1 -24 -1 -25 -56 -23 -43 1
-58 -2 -62 -14 -4 -10 -14 -13 -30 -9 -17 4 -26 1 -30 -10 -4 -11 -13 -14 -30
-10 -18 4 -28 0 -40 -19 -15 -22 -24 -25 -77 -25 l-60 0 3 43 c2 29 8 42 18
42 8 0 20 6 26 14 6 8 16 11 21 8 6 -4 14 0 17 9 4 11 18 14 53 12 42 -3 48 0
48 16 0 11 6 21 13 24 6 2 10 8 6 13 -12 19 10 30 54 27 39 -3 47 -6 47 -23z
m3 -853 c3 -32 3 -32 -42 -32 -44 0 -46 1 -46 29 0 26 4 30 33 34 48 6 52 3
55 -31z m-1518 -1137 l0 -55 -35 0 c-28 0 -35 4 -35 19 0 11 -4 23 -10 26 -5
3 -10 19 -10 36 0 28 2 29 45 29 l45 0 0 -55z m-180 -472 c0 -32 -26 -63 -53
-63 -30 0 -57 29 -57 62 0 27 1 28 55 28 53 0 55 -1 55 -27z m-345 -1813 c0
-8 6 -20 13 -26 21 -16 11 -59 -13 -59 -18 0 -20 -6 -16 -73 l3 -72 -37 0 -38
0 6 40 c4 33 1 41 -19 55 -22 14 -24 23 -24 86 l0 70 63 -3 c47 -2 62 -7 62
-18z m143 -69 c18 -22 32 -44 32 -48 0 -11 -83 -93 -93 -93 -4 0 -7 12 -7 26
0 39 22 154 30 154 4 0 21 -18 38 -39z m-216 -728 c10 -9 18 -29 18 -45 0 -28
-2 -29 -42 -26 -43 3 -43 3 -46 46 -3 40 -2 42 24 42 15 0 36 -7 46 -17z
m3371 -711 c36 -38 34 -65 -8 -99 -26 -21 -33 -33 -29 -50 4 -15 1 -25 -8 -28
-19 -8 -19 -106 0 -121 8 -5 12 -21 10 -35 -2 -18 -8 -23 -25 -21 -26 4 -31
-13 -7 -26 21 -12 15 -57 -8 -57 -9 0 -20 -4 -24 -8 -4 -4 -20 -7 -36 -7 -27
0 -28 2 -28 45 0 31 5 47 15 51 11 5 13 16 8 50 -4 34 -2 45 9 49 12 5 14 17
10 50 -3 34 -1 46 11 50 12 5 14 19 9 70 -4 54 -2 66 12 71 9 3 13 10 10 15
-9 15 6 29 30 29 12 0 34 -13 49 -28z m-1307 -939 c-10 -10 -19 5 -10 18 6 11
8 11 12 0 2 -7 1 -15 -2 -18z m171 -27 c4 -7 19 -13 33 -12 19 1 26 -5 28 -23
2 -15 -3 -28 -13 -33 -10 -6 -14 -16 -10 -29 17 -54 -95 -85 -130 -37 -8 13
-23 23 -33 23 -23 0 -30 53 -8 61 9 3 13 10 10 16 -3 5 2 18 12 29 21 23 98
27 111 5z m-259 -64 c3 -31 2 -32 -32 -32 -33 0 -36 2 -36 29 0 23 5 31 23 34
35 7 42 2 45 -31z m444 21 c10 -9 18 -29 18 -45 0 -26 -3 -28 -37 -28 -20 0
-45 7 -55 17 -18 16 -24 53 -11 66 12 13 67 7 85 -10z m273 -48 c0 -17 6 -20
43 -17 l42 4 0 -37 0 -38 -50 5 c-35 4 -50 1 -54 -9 -8 -19 -75 -17 -82 2 -4
10 -13 13 -26 9 -27 -8 -58 23 -58 59 l0 30 49 -6 c38 -5 51 -3 55 9 4 11 17
14 43 12 30 -2 38 -7 38 -23z"/>
<path d="M14637 13673 c-12 -11 -8 -83 4 -83 18 0 38 32 39 63 0 20 -5 27 -18
27 -10 0 -22 -3 -25 -7z"/>
<path d="M14990 13201 c0 -11 -10 -27 -22 -35 -17 -12 -20 -18 -10 -28 23 -23
6 -138 -20 -138 -5 0 -8 -7 -8 -15 0 -8 5 -15 10 -15 6 0 10 -9 10 -20 0 -11
7 -20 15 -20 11 0 15 11 15 39 0 22 5 43 10 46 6 3 10 17 10 30 0 13 5 27 10
30 6 3 10 37 10 76 0 55 -3 69 -15 69 -8 0 -15 -9 -15 -19z"/>
<path d="M14875 12510 c-3 -5 -4 -14 -1 -19 11 -17 -31 -42 -65 -39 -27 2 -34
-1 -34 -14 0 -10 -10 -25 -23 -33 -25 -18 -30 -63 -7 -71 10 -4 13 -14 9 -28
-7 -28 19 -51 55 -51 23 0 26 -3 23 -32 -3 -25 0 -33 12 -33 10 0 16 9 16 25
l0 25 110 -6 110 -7 0 28 c0 25 -3 27 -30 23 -16 -2 -31 0 -33 6 -2 6 -17 11
-33 11 -28 0 -29 1 -27 46 2 35 -1 49 -13 53 -12 5 -14 17 -8 66 l7 60 -31 0
c-17 0 -34 -4 -37 -10z m-15 -165 c0 -8 -4 -15 -10 -15 -5 0 -10 7 -10 15 0 8
5 15 10 15 6 0 10 -7 10 -15z"/>
<path d="M16074 11845 c-4 -10 -14 -13 -31 -9 -29 8 -73 -13 -73 -34 0 -11 9
-13 39 -9 29 4 41 1 45 -10 4 -10 18 -14 45 -12 21 2 46 -3 55 -10 13 -11 18
-10 31 2 20 21 19 37 -3 37 -10 0 -31 14 -47 30 -32 33 -53 38 -61 15z"/>
<path d="M18788 18827 c-20 -17 -42 -48 -49 -68 -12 -35 -11 -38 24 -80 19
-24 52 -53 71 -63 l36 -19 38 30 c50 40 64 69 59 121 -4 32 -13 53 -38 78 -45
46 -89 47 -141 1z m112 -92 c0 -42 -2 -45 -27 -45 -36 0 -63 27 -63 62 0 27 2
28 45 28 l45 0 0 -45z"/>
<path d="M15765 18606 c-36 -30 -40 -39 -40 -79 0 -39 5 -52 34 -81 25 -26 44
-36 66 -36 22 0 41 10 66 36 29 29 34 42 34 81 0 40 -4 49 -40 79 -22 18 -49
34 -60 34 -11 0 -38 -16 -60 -34z m95 -81 c0 -33 -2 -35 -35 -35 -33 0 -35 2
-35 35 0 33 2 35 35 35 33 0 35 -2 35 -35z"/>
<path d="M18349 17467 c-37 -33 -49 -53 -55 -96 -1 -14 -8 -35 -15 -47 -9 -18
-9 -31 5 -65 14 -34 15 -48 5 -76 -14 -45 -5 -81 34 -120 22 -23 40 -33 62
-33 22 0 40 10 62 33 38 39 49 76 34 117 -8 26 -7 38 10 71 17 32 20 53 17
111 -4 68 -5 72 -43 104 -50 42 -70 42 -116 1z m91 -114 c0 -76 -16 -103 -62
-103 -25 0 -28 4 -28 30 0 17 6 33 13 36 10 4 13 19 9 54 l-5 50 37 0 36 0 0
-67z m-20 -208 c0 -33 -2 -35 -35 -35 -33 0 -35 2 -35 35 0 33 2 35 35 35 33
0 35 -2 35 -35z"/>
<path d="M18285 16966 c-36 -30 -40 -39 -40 -79 0 -38 6 -52 33 -79 34 -36 39
-48 20 -48 -7 0 -31 -16 -53 -34 -36 -30 -40 -39 -40 -79 0 -39 5 -52 34 -81
25 -26 44 -36 66 -36 22 0 41 10 66 36 29 29 34 42 34 81 0 40 -4 49 -38 77
-37 31 -40 46 -7 46 9 0 32 16 51 36 29 29 34 42 34 81 0 40 -4 49 -40 79 -22
18 -49 34 -60 34 -11 0 -38 -16 -60 -34z m95 -81 c0 -33 -2 -35 -35 -35 -33 0
-35 2 -35 35 0 33 2 35 35 35 33 0 35 -2 35 -35z m-40 -240 c0 -33 -2 -35 -35
-35 -33 0 -35 2 -35 35 0 33 2 35 35 35 33 0 35 -2 35 -35z"/>
<path d="M18205 16386 c-36 -30 -40 -39 -40 -79 0 -39 5 -52 34 -81 25 -26 44
-36 66 -36 22 0 41 10 66 36 29 29 34 42 34 81 0 40 -4 49 -40 79 -22 18 -49
34 -60 34 -11 0 -38 -16 -60 -34z m95 -81 c0 -33 -2 -35 -35 -35 -33 0 -35 2
-35 35 0 33 2 35 35 35 33 0 35 -2 35 -35z"/>
<path d="M7690 16183 c-42 -28 -130 -116 -145 -147 -31 -61 -8 -137 57 -189
l37 -30 47 24 c26 13 71 47 100 75 58 56 70 91 61 172 -4 39 -12 52 -44 79
-42 36 -75 41 -113 16z m90 -121 c0 -66 -19 -94 -61 -90 -16 2 -23 -2 -21 -11
5 -22 -29 -51 -60 -51 -27 0 -28 2 -28 50 0 28 5 52 13 57 6 4 12 15 12 23 0
8 7 15 16 15 9 0 29 15 44 33 19 22 35 32 56 32 29 0 29 -1 29 -58z"/>
<path d="M18165 16106 c-36 -30 -40 -39 -40 -79 0 -29 6 -52 17 -64 17 -19 17
-20 -6 -42 -12 -12 -29 -41 -36 -64 -6 -23 -15 -46 -20 -52 -4 -5 -8 -34 -8
-63 -1 -50 -17 -117 -34 -136 -14 -17 -9 -132 7 -170 17 -41 12 -56 -29 -95
-45 -42 -24 -117 47 -174 l37 -31 43 24 c47 27 59 39 87 92 24 45 25 64 4 103
-14 27 -13 32 4 70 30 63 40 101 35 128 -3 14 3 41 12 59 27 51 33 233 10 282
-17 36 -17 37 6 62 18 19 24 37 24 71 0 40 -4 49 -40 79 -22 18 -49 34 -60 34
-11 0 -38 -16 -60 -34z m95 -81 c0 -33 -2 -35 -35 -35 -33 0 -35 2 -35 35 0
33 2 35 35 35 33 0 35 -2 35 -35z m-20 -195 c0 -36 -4 -52 -15 -56 -8 -4 -15
-12 -15 -19 0 -7 7 -15 15 -19 19 -7 20 -55 1 -62 -8 -3 -12 -12 -9 -20 3 -7
-2 -16 -10 -20 -12 -4 -14 -19 -9 -69 4 -53 2 -66 -11 -71 -12 -4 -15 -14 -10
-35 5 -28 4 -29 -31 -29 l-36 0 0 80 c0 62 3 82 15 86 10 4 13 14 9 30 -4 16
-1 26 9 30 12 4 14 18 9 69 -4 52 -2 66 11 70 11 5 14 16 10 46 l-6 39 37 0
36 0 0 -50z m-60 -517 c0 -37 -46 -83 -82 -83 -26 0 -28 3 -28 37 0 49 23 73
72 73 35 0 38 -2 38 -27z"/>
<path d="M2285 15906 c-36 -30 -40 -39 -40 -79 0 -39 5 -52 34 -81 47 -48 83
-48 132 0 l36 35 24 -31 c43 -56 193 -190 214 -190 39 0 145 134 145 184 0 47
-76 131 -128 141 -15 3 -49 13 -76 21 -67 20 -73 19 -122 -21 -45 -37 -64 -44
-64 -21 0 19 -73 76 -96 76 -11 0 -37 -16 -59 -34z m95 -81 c0 -33 -2 -35 -35
-35 -33 0 -35 2 -35 35 0 33 2 35 35 35 33 0 35 -2 35 -35z m216 0 c4 -10 14
-13 30 -9 16 4 26 1 30 -9 4 -11 15 -14 37 -10 24 4 37 0 50 -15 24 -26 19
-67 -8 -67 -16 0 -19 -6 -17 -33 3 -31 2 -32 -32 -32 -33 0 -36 2 -36 29 0 17
6 31 16 35 15 6 15 8 -2 27 -16 18 -20 19 -30 5 -6 -9 -20 -16 -31 -16 -28 0
-73 51 -73 83 0 23 4 27 30 27 18 0 33 -6 36 -15z"/>
<path d="M3580 15735 c-14 -8 -50 -22 -80 -31 -83 -26 -190 -112 -216 -173
-23 -56 -18 -73 44 -132 73 -70 95 -81 162 -77 53 3 55 2 58 -23 2 -15 25 -47
58 -80 l55 -54 113 0 c95 0 117 -4 142 -20 35 -24 91 -45 121 -45 12 0 36 -12
54 -27 33 -28 64 -32 140 -18 26 5 39 3 48 -9 8 -9 19 -16 26 -16 7 0 19 -7
26 -16 11 -14 27 -16 88 -11 51 4 83 2 100 -7 21 -11 86 -14 123 -7 24 4 78
67 84 96 11 62 -72 183 -138 200 -13 4 -35 23 -49 44 -31 44 -97 91 -155 110
-34 11 -47 11 -77 0 -34 -12 -38 -11 -62 11 -14 13 -25 29 -25 35 0 20 -82 86
-140 112 -66 30 -90 34 -143 28 -59 -8 -106 10 -177 65 -77 60 -131 73 -180
45z m121 -91 c8 -9 14 -24 14 -33 0 -11 8 -15 28 -14 19 1 32 -5 43 -22 9 -14
22 -21 30 -18 7 3 16 -2 20 -10 3 -9 11 -14 19 -11 7 3 15 -2 18 -10 8 -20 36
-21 43 -1 8 21 112 21 120 1 3 -8 12 -12 20 -9 7 3 16 -2 20 -10 3 -9 11 -14
18 -11 6 2 28 -13 49 -34 34 -34 37 -43 35 -83 l-3 -44 34 2 c22 1 39 -5 47
-15 10 -14 13 -12 29 11 14 23 25 27 61 27 30 0 46 -5 50 -15 4 -8 11 -12 16
-9 5 4 27 -11 49 -32 41 -40 51 -77 23 -88 -10 -4 -14 -14 -11 -26 3 -10 -1
-25 -9 -31 -8 -6 -13 -23 -12 -38 3 -25 1 -26 -51 -29 -66 -4 -93 15 -84 59 5
25 2 29 -16 29 -12 0 -24 -7 -28 -16 -4 -12 -14 -14 -38 -10 -24 5 -34 2 -39
-9 -7 -18 -52 -20 -63 -2 -4 6 -15 12 -23 12 -8 0 -15 9 -15 20 0 18 -6 20
-48 17 -35 -2 -49 1 -53 12 -4 11 -14 14 -28 10 -24 -6 -51 17 -51 45 0 23
-65 28 -77 7 -11 -20 -152 -23 -165 -3 -4 6 -15 12 -23 12 -11 0 -15 11 -15
40 0 34 3 40 23 43 14 2 29 -4 37 -14 12 -16 14 -17 29 -2 21 22 21 25 -11 54
-26 22 -33 24 -99 18 -60 -5 -72 -4 -77 10 -8 20 -36 21 -43 1 -10 -24 -70
-19 -89 7 -8 13 -23 23 -33 23 -13 0 -17 9 -17 40 0 29 4 40 15 40 8 0 18 4
22 10 4 5 15 10 25 10 11 0 18 8 18 20 0 11 7 20 15 20 8 0 19 6 24 13 5 9 19
12 41 8 27 -5 35 -2 49 19 14 22 24 25 70 25 37 0 58 -5 67 -16z m914 -479 c0
-23 4 -30 20 -30 15 0 21 -8 23 -32 3 -31 1 -33 -27 -33 -26 0 -31 4 -31 25 0
16 -6 25 -15 25 -9 0 -15 -9 -15 -25 0 -19 -5 -25 -22 -25 -46 0 -81 69 -42
84 9 3 14 12 11 20 -9 22 3 27 53 24 43 -3 45 -5 45 -33z"/>
<path d="M8020 15643 c-53 -10 -130 -109 -130 -168 0 -27 77 -101 115 -111 39
-10 99 22 143 75 30 37 37 54 37 88 0 75 -80 131 -165 116z m98 -115 c-2 -25
-8 -33 -23 -33 -13 0 -20 -7 -20 -20 0 -17 -8 -20 -52 -23 l-53 -3 0 31 c0 18
6 33 15 36 8 4 12 10 9 15 -12 20 10 29 67 29 l60 0 -3 -32z"/>
<path d="M7639 15203 c-31 -5 -81 -55 -98 -99 -11 -27 -10 -37 6 -69 10 -21
34 -51 54 -67 34 -28 38 -28 81 -18 31 8 59 25 84 51 33 34 39 46 39 84 0 77
-77 132 -166 118z m101 -119 c0 -35 -1 -36 -29 -31 -20 4 -31 2 -35 -8 -3 -9
-18 -15 -36 -15 -29 0 -30 2 -30 45 l0 45 65 0 65 0 0 -36z"/>
<path d="M7415 14980 c-10 -11 -23 -20 -29 -20 -7 0 -40 -28 -74 -63 l-62 -63
0 -60 c0 -56 2 -62 38 -96 69 -67 92 -71 154 -29 34 23 53 48 87 116 55 110
54 152 -6 202 -44 38 -82 42 -108 13z m83 -102 c-2 -35 -7 -43 -23 -43 -17 0
-20 -6 -17 -34 4 -49 -38 -91 -90 -91 l-38 0 0 58 c0 71 19 94 71 90 33 -3 34
-2 31 30 -3 31 -2 32 33 32 l36 0 -3 -42z"/>
<path d="M18144 14888 c-38 -41 -54 -79 -54 -124 0 -30 9 -44 55 -90 59 -57
78 -63 123 -40 54 28 77 63 76 117 -1 56 -15 90 -58 137 -24 26 -37 32 -71 32
-34 0 -47 -6 -71 -32z m113 -77 c-4 -20 -2 -31 8 -35 9 -3 15 -18 15 -36 0
-28 -3 -30 -37 -30 -53 0 -73 23 -73 82 l0 48 46 0 c46 0 46 0 41 -29z"/>
<path d="M17959 14663 c-60 -64 -69 -85 -67 -156 2 -40 -3 -71 -10 -80 -9 -10
-12 -46 -11 -112 1 -61 -3 -101 -10 -108 -18 -18 -14 -152 4 -167 14 -12 12
-17 -18 -49 -37 -40 -57 -80 -57 -115 0 -33 25 -88 49 -111 l22 -19 -34 -35
c-18 -20 -44 -57 -56 -83 -20 -40 -23 -58 -19 -116 3 -41 1 -77 -6 -88 -6 -11
-11 -46 -12 -79 -1 -38 -10 -75 -23 -102 -16 -33 -21 -61 -21 -125 0 -84 0
-84 38 -120 69 -66 112 -74 168 -31 36 27 74 89 74 120 0 10 -9 35 -20 56 -24
44 -25 59 -5 98 22 41 47 248 43 346 -3 74 -6 85 -30 110 l-27 27 44 47 c48
51 66 114 47 168 -9 26 -7 32 29 67 50 49 60 87 52 196 l-6 89 34 35 c28 29
34 43 34 79 0 26 -7 50 -16 61 -11 13 -18 43 -21 93 -4 72 -5 75 -43 107 -53
45 -82 44 -126 -3z m101 -83 c0 -26 -5 -43 -14 -46 -8 -3 -12 -12 -9 -20 4
-10 -4 -14 -31 -14 -34 0 -36 2 -36 34 0 19 5 38 10 41 6 3 10 15 10 26 0 15
7 19 35 19 34 0 35 -1 35 -40z m-22 -127 c-2 -15 3 -17 30 -15 31 3 32 2 32
-34 0 -34 -2 -36 -27 -31 -46 9 -62 -15 -56 -79 l6 -54 -37 0 -36 0 0 85 c0
67 3 87 15 91 10 4 13 14 9 30 -6 22 -3 24 30 24 30 0 36 -3 34 -17z m-21
-257 c-3 -8 1 -17 9 -20 18 -7 19 -72 2 -83 -7 -4 -13 -15 -13 -23 0 -10 -13
-16 -42 -18 l-43 -3 0 68 c0 78 9 93 58 93 25 0 33 -4 29 -14z m-57 -289 c0
-19 -7 -48 -16 -65 -12 -25 -22 -32 -45 -32 l-29 0 0 65 0 65 45 0 c44 0 45 0
45 -33z m-40 -345 c0 -109 -6 -122 -57 -122 l-33 0 0 75 c0 57 4 77 15 81 10
4 12 15 8 35 -5 28 -4 29 31 29 l36 0 0 -98z m-44 -152 c22 0 24 -3 24 -55 0
-39 -4 -57 -14 -61 -8 -3 -12 -12 -10 -19 7 -18 -12 -28 -42 -21 -23 6 -24 10
-24 80 0 76 5 90 28 81 7 -3 25 -5 38 -5z m-47 -179 c9 -6 12 -19 8 -39 -4
-20 -2 -32 6 -35 6 -2 12 -12 12 -23 0 -12 7 -19 20 -19 27 0 32 -40 9 -66
-12 -14 -30 -19 -66 -19 l-48 0 0 105 c0 102 1 105 23 105 12 0 28 -4 36 -9z"/>
<path d="M14079 14584 c-7 -8 -31 -25 -53 -36 -56 -27 -104 -75 -126 -123 -21
-46 -44 -70 -80 -80 -34 -10 -99 -73 -116 -114 -18 -43 -18 -66 2 -96 16 -25
12 -45 -10 -45 -17 0 -80 -69 -94 -103 -7 -15 -12 -56 -12 -89 0 -49 4 -66 21
-84 18 -20 21 -35 21 -113 l0 -90 42 -39 c24 -22 53 -43 64 -46 25 -8 68 12
102 49 27 28 28 56 18 290 -2 41 2 82 10 100 12 28 50 55 79 55 16 0 70 37 95
65 9 11 27 40 39 65 12 24 34 60 50 79 16 20 29 43 29 52 0 8 10 25 23 37 43
40 70 107 62 154 -10 58 -75 128 -120 128 -18 0 -38 -7 -46 -16z m86 -98 c20
-43 16 -71 -10 -71 -16 0 -20 -7 -20 -30 0 -22 -5 -30 -17 -30 -27 0 -43 -23
-43 -63 0 -34 -2 -37 -30 -37 -29 0 -30 -1 -27 -44 2 -37 -2 -49 -25 -73 -23
-24 -34 -28 -59 -23 -26 4 -34 1 -48 -20 -12 -18 -25 -25 -47 -25 -30 0 -30 1
-27 42 3 37 0 43 -17 43 -24 0 -34 43 -13 59 7 6 13 18 13 26 0 11 12 15 50
15 43 0 50 3 50 20 0 13 7 20 20 20 16 0 20 7 20 30 0 23 4 30 20 30 15 0 20
7 20 28 0 15 5 31 10 35 6 4 10 14 10 22 0 11 12 15 50 15 l50 0 -3 33 c-3 30
-1 32 27 32 24 0 33 -6 46 -34z m-367 -498 c-2 -25 -8 -33 -22 -33 -26 0 -33
-25 -12 -41 12 -8 16 -23 14 -46 -3 -32 -4 -33 -56 -36 l-53 -3 3 83 c2 66 6
83 18 83 8 0 19 6 23 13 4 6 26 12 48 12 39 0 40 -1 37 -32z m2 -216 c0 -37
-17 -52 -57 -52 -27 0 -33 4 -33 22 0 31 29 58 62 58 24 0 28 -4 28 -28z m-2
-120 l3 -42 -45 0 -46 0 0 39 c0 37 2 40 33 44 49 6 52 4 55 -41z"/>
<path d="M12120 14226 c-15 -8 -56 -14 -105 -14 -59 0 -95 -6 -135 -22 -30
-12 -72 -28 -92 -36 -136 -50 -258 -136 -258 -180 0 -13 -4 -26 -10 -29 -31
-19 6 -113 62 -158 40 -32 39 -32 110 4 10 5 44 9 76 9 47 0 67 5 96 25 42 29
68 32 86 10 7 -8 17 -15 23 -15 6 0 22 -10 36 -23 39 -35 105 -61 137 -53 14
4 52 32 84 62 61 58 104 70 131 38 26 -32 69 -47 99 -34 42 17 80 63 87 102
13 82 -75 227 -146 241 -14 3 -42 16 -61 29 -70 46 -177 68 -220 44z m76 -81
c5 -12 15 -14 39 -9 22 4 36 1 41 -8 5 -7 16 -13 24 -13 8 0 15 -9 15 -20 0
-17 6 -20 35 -17 20 1 39 -3 45 -10 5 -7 17 -13 25 -13 8 0 15 -7 15 -15 0 -8
6 -20 14 -26 8 -6 11 -16 8 -21 -4 -6 0 -13 8 -17 10 -3 15 -19 15 -46 l0 -41
-42 3 c-30 2 -43 8 -43 18 0 8 -6 19 -13 23 -7 5 -10 13 -6 18 7 12 -24 49
-41 49 -7 0 -25 -16 -40 -36 -24 -31 -32 -35 -58 -30 -46 9 -69 -16 -61 -66
l7 -39 -54 3 c-46 3 -54 6 -54 23 0 13 -7 20 -18 20 -10 0 -25 9 -33 20 -9 11
-27 20 -42 20 -20 0 -27 5 -27 20 0 13 -7 20 -20 20 -13 0 -20 7 -20 20 0 13
-7 20 -20 20 -11 0 -20 -7 -20 -15 0 -8 -4 -18 -10 -22 -5 -4 -10 -20 -10 -35
l0 -28 -87 0 c-79 0 -89 -2 -103 -22 -11 -15 -26 -23 -46 -23 -27 0 -29 2 -29
40 0 22 6 42 14 47 7 4 13 19 12 33 -1 23 2 25 36 23 31 -2 40 3 63 33 24 32
31 35 60 30 27 -5 35 -2 50 20 13 19 22 24 40 20 16 -4 25 -1 29 10 5 12 14
15 40 10 25 -5 35 -3 40 9 7 19 55 20 62 0 10 -26 69 -19 88 10 19 28 63 34
72 10z"/>
<path d="M8505 14133 c-48 -11 -115 -103 -115 -157 0 -23 58 -85 98 -105 12
-7 22 -17 22 -24 0 -15 65 -80 97 -96 31 -16 74 -12 108 9 69 44 106 60 140
60 39 0 43 -11 23 -67 -11 -31 -10 -35 20 -66 18 -19 32 -43 32 -57 0 -14 11
-43 25 -65 21 -34 23 -48 18 -95 -3 -30 -14 -72 -24 -92 -11 -21 -19 -54 -19
-74 0 -37 -37 -134 -51 -134 -3 0 -12 7 -19 15 -25 30 -121 11 -174 -35 -18
-16 -38 -47 -45 -68 -13 -39 -13 -41 19 -81 19 -23 49 -50 68 -62 35 -20 36
-20 71 -2 57 28 120 93 127 130 3 18 8 33 11 33 3 0 19 -10 35 -22 25 -17 34
-19 49 -10 10 7 25 12 32 12 20 0 163 150 190 200 13 25 32 70 42 100 10 30
23 62 29 70 6 8 18 31 27 50 9 19 28 61 44 93 21 45 26 68 22 99 -5 41 -44 93
-77 103 -9 3 -32 28 -49 56 -38 57 -217 206 -259 214 -15 3 -68 19 -118 35
-79 26 -109 30 -235 33 -79 2 -153 2 -164 0z m67 -100 c-4 -30 14 -29 34 2 12
19 25 25 50 25 21 0 37 -6 40 -15 5 -12 20 -13 80 -8 63 5 74 3 80 -10 4 -12
13 -15 30 -11 17 4 26 1 30 -10 3 -9 11 -13 16 -10 6 4 14 0 19 -7 5 -9 27
-14 56 -14 39 0 48 -3 48 -17 0 -22 21 -43 43 -43 10 0 17 -8 17 -20 0 -15 6
-19 25 -17 34 4 83 -45 75 -76 -4 -15 0 -24 10 -28 8 -3 12 -10 9 -16 -3 -5 2
-18 11 -29 14 -15 26 -17 56 -13 l39 7 0 -41 c0 -33 -5 -45 -24 -58 -14 -8
-23 -21 -20 -28 3 -8 -2 -16 -11 -19 -11 -5 -14 -14 -9 -31 3 -15 1 -27 -8
-33 -7 -4 -13 -15 -13 -23 0 -8 -9 -15 -20 -15 -18 0 -20 -6 -17 -48 2 -35 -1
-49 -12 -53 -8 -3 -12 -12 -10 -19 3 -7 -6 -21 -20 -30 -19 -13 -24 -23 -20
-40 8 -31 -3 -35 -80 -28 l-66 6 0 43 c0 36 5 47 26 60 23 16 25 21 19 69 -6
44 -4 55 10 62 22 13 17 78 -6 78 -42 1 -68 65 -31 80 15 6 15 8 2 18 -8 7
-15 19 -15 27 0 11 -9 14 -33 12 -32 -3 -33 -2 -30 30 2 25 8 33 23 33 24 0
33 33 11 41 -8 3 -13 11 -10 18 3 7 -11 25 -30 40 -22 16 -33 32 -30 41 9 23
-26 32 -42 11 -9 -14 -20 -16 -43 -11 -24 5 -33 3 -37 -10 -4 -9 -12 -14 -19
-11 -8 3 -16 -2 -19 -11 -4 -8 -13 -13 -20 -10 -8 3 -21 -5 -30 -19 -14 -20
-24 -24 -68 -24 l-51 0 6 37 c5 31 2 42 -20 65 -23 24 -32 27 -65 21 l-39 -6
3 44 c2 31 7 44 18 44 8 0 19 6 23 13 5 7 21 12 35 10 22 -2 26 -8 24 -25z
m508 -827 c0 -27 -45 -56 -87 -56 -21 0 -24 4 -21 33 2 23 8 32 21 31 9 -1 17
2 17 7 0 5 16 9 35 9 30 0 35 -3 35 -24z m-220 -122 c0 -34 -1 -35 -32 -32
-27 2 -33 -1 -33 -17 0 -27 -40 -32 -66 -9 -11 9 -19 30 -19 47 0 27 2 29 29
24 20 -4 31 -2 35 8 3 10 20 15 46 15 39 0 40 -1 40 -36z"/>
<path d="M13297 13882 c-52 -53 -87 -127 -87 -184 0 -26 -4 -50 -10 -53 -5 -3
-10 -25 -10 -49 0 -35 6 -47 38 -78 50 -48 72 -58 131 -58 28 0 51 -3 51 -6 0
-3 -17 -27 -37 -53 -59 -72 -63 -84 -63 -180 l0 -88 44 -41 c54 -50 77 -57
115 -38 34 18 91 84 91 105 0 9 19 35 43 59 41 41 42 45 42 107 0 54 -4 67
-25 90 -31 33 -65 51 -113 60 -20 4 -37 9 -37 12 0 2 12 21 28 40 24 33 27 44
26 112 -2 173 -1 171 -57 229 -45 46 -56 52 -92 52 -34 0 -47 -6 -78 -38z
m127 -61 c14 -15 16 -29 11 -59 -5 -31 -3 -41 9 -45 12 -5 16 -21 16 -68 0
-88 -12 -99 -112 -99 l-78 0 0 39 c0 30 5 42 25 55 28 18 33 44 10 52 -24 10
-18 52 10 70 19 13 23 21 18 45 -5 28 -4 29 34 29 27 0 46 -6 57 -19z m92
-436 c4 -10 15 -12 35 -8 l30 6 -3 -54 c-2 -40 -7 -54 -18 -54 -8 0 -18 -4
-22 -10 -4 -5 -15 -10 -25 -10 -13 0 -18 -8 -18 -29 0 -16 -5 -31 -12 -33 -8
-3 -10 -15 -6 -34 5 -29 5 -29 -41 -29 l-46 0 0 46 c0 33 5 51 18 60 16 12 16
13 0 19 -21 8 -24 50 -5 62 6 4 12 15 12 23 0 8 9 15 20 15 11 0 20 7 21 15 2
28 4 30 29 30 14 0 28 -7 31 -15z"/>
<path d="M18302 13867 c-38 -38 -52 -60 -52 -81 0 -35 55 -104 104 -130 l36
-19 38 30 c52 42 64 68 59 132 -4 49 -8 58 -43 88 -55 47 -80 43 -142 -20z
m118 -82 c0 -53 -1 -55 -27 -55 -32 0 -63 26 -63 53 0 30 29 57 62 57 27 0 28
-1 28 -55z"/>
<path d="M12387 13647 c-34 -29 -39 -39 -48 -102 -5 -38 -8 -74 -5 -80 11 -30
-97 -136 -179 -175 -43 -20 -65 -23 -160 -23 -91 1 -119 4 -160 23 -103 45
-116 50 -131 50 -30 0 -90 -58 -104 -100 -12 -37 -12 -42 8 -63 12 -13 22 -29
22 -37 0 -39 93 -120 138 -120 13 0 44 -17 70 -38 87 -69 116 -76 177 -42 38
21 90 27 100 10 3 -5 38 -10 77 -10 63 0 74 3 108 30 38 30 72 87 74 124 1 11
11 26 24 32 41 20 82 66 87 98 3 17 7 53 10 80 2 33 11 56 27 73 21 22 23 34
23 130 l0 105 -40 34 c-50 42 -70 42 -118 1z m91 -79 c-3 -28 -7 -32 -33 -32
-26 0 -30 4 -33 32 -3 31 -2 32 33 32 35 0 36 -1 33 -32z m0 -106 l3 -52 -35
0 -36 0 0 48 c0 27 2 51 5 53 2 3 17 4 32 4 26 -2 28 -4 31 -53z m-58 -131 c0
-18 -6 -31 -17 -36 -17 -6 -17 -7 0 -19 9 -7 17 -25 17 -40 0 -22 -4 -26 -29
-26 -16 0 -31 6 -35 15 -8 23 -29 18 -23 -5 4 -14 -2 -25 -19 -37 -22 -14 -24
-20 -18 -65 10 -72 -8 -88 -101 -88 -66 0 -74 2 -89 25 -18 28 -44 33 -52 11
-3 -8 -11 -13 -18 -10 -7 3 -21 -6 -30 -20 -22 -35 -78 -36 -101 -4 -8 13 -23
23 -33 23 -10 0 -17 8 -17 20 0 13 -7 20 -20 20 -13 0 -20 7 -20 20 0 24 -33
33 -41 11 -4 -10 -18 -16 -36 -16 -28 0 -30 2 -25 29 5 24 1 32 -18 45 -17 11
-25 26 -25 46 0 27 3 30 30 30 20 0 35 -8 46 -25 12 -19 22 -23 40 -19 17 4
26 1 30 -10 4 -11 13 -14 30 -10 17 4 26 1 30 -10 5 -14 15 -16 59 -11 45 6
53 4 59 -12 7 -17 8 -17 21 1 12 16 22 18 65 12 41 -5 51 -4 56 9 4 9 12 14
19 11 8 -3 16 2 19 11 4 10 14 13 30 9 19 -5 29 1 51 29 15 20 34 34 43 33 10
-2 16 3 14 11 -5 23 49 71 80 71 24 0 28 -4 28 -29z"/>
<path d="M18242 13353 c-25 -5 -132 -108 -132 -128 0 -6 -9 -20 -20 -30 -11
-10 -20 -23 -20 -30 0 -7 -9 -20 -20 -30 -14 -13 -20 -31 -20 -60 0 -37 5 -47
43 -81 24 -22 52 -44 63 -50 17 -10 17 -14 5 -36 -23 -44 8 -225 46 -269 13
-15 9 -17 -37 -16 -44 1 -54 -3 -84 -32 -18 -18 -39 -50 -46 -72 -12 -36 -12
-41 8 -62 27 -29 27 -42 2 -95 -25 -52 -25 -84 -1 -106 25 -23 32 -82 15 -125
-8 -18 -14 -43 -14 -54 0 -27 79 -118 124 -141 l36 -19 38 30 c48 38 71 86 66
137 -3 26 1 45 12 57 18 20 48 247 39 289 -3 14 -23 49 -45 78 -22 29 -40 57
-40 62 0 5 22 21 49 35 33 16 61 41 83 72 l33 48 0 134 0 133 -39 32 c-41 36
-42 42 -9 115 10 23 14 53 11 92 -4 51 -9 64 -38 94 -34 35 -50 39 -108 28z
m78 -133 c0 -52 -3 -61 -25 -76 -14 -9 -22 -21 -18 -27 3 -5 0 -15 -8 -21 -8
-6 -14 -18 -14 -26 0 -10 -9 -15 -25 -14 -14 1 -29 -5 -33 -12 -5 -8 -25 -14
-47 -14 -40 0 -40 0 -40 40 0 34 6 44 45 76 34 29 43 43 39 59 -6 23 28 61 44
51 6 -3 12 1 16 9 3 9 18 15 36 15 l30 0 0 -60z m40 -290 c0 -36 -4 -52 -15
-56 -9 -4 -15 -19 -15 -39 0 -20 6 -35 15 -39 45 -17 -31 -126 -88 -126 l-30
0 6 59 c5 47 3 60 -8 65 -10 4 -15 20 -15 49 0 51 23 79 61 75 21 -3 24 0 21
30 -3 31 -2 32 32 32 l36 0 0 -50z m-165 -410 c0 -8 4 -18 10 -22 5 -4 10 -15
10 -25 0 -10 6 -17 14 -15 23 5 51 -29 51 -63 0 -24 -7 -37 -27 -50 -24 -16
-25 -19 -9 -30 14 -10 16 -26 14 -76 -3 -64 -3 -64 -33 -64 -33 0 -48 -30 -21
-41 12 -5 16 -21 16 -66 l0 -59 -32 3 c-25 2 -33 8 -33 23 0 13 -7 20 -20 20
-25 0 -35 52 -11 61 11 4 13 14 9 36 -4 23 -2 34 11 44 22 15 18 59 -5 59 -41
1 -69 68 -34 81 8 4 12 11 9 16 -4 6 6 21 22 33 25 20 27 24 12 30 -9 4 -15
12 -12 19 3 7 -6 21 -20 30 -19 12 -26 25 -26 47 0 30 0 30 53 27 38 -2 52 -7
52 -18z"/>
<path d="M14125 12426 c-38 -32 -40 -37 -40 -91 0 -55 2 -59 44 -96 24 -22 49
-39 56 -39 7 0 32 17 56 39 42 37 44 41 44 96 0 54 -2 59 -40 91 -22 18 -49
34 -60 34 -11 0 -38 -16 -60 -34z m95 -91 c0 -45 0 -45 -35 -45 -35 0 -35 0
-35 45 0 45 0 45 35 45 35 0 35 0 35 -45z"/>
<path d="M14665 11873 c-30 -7 -85 -63 -101 -102 -17 -41 -18 -65 -2 -90 8
-14 8 -29 -3 -66 -14 -47 -21 -55 -139 -154 -53 -44 -92 -126 -77 -161 15 -35
47 -69 81 -87 23 -12 33 -12 57 -3 24 10 33 10 54 -4 14 -10 30 -27 34 -39 10
-25 65 -79 98 -96 12 -6 33 -11 47 -11 14 0 49 -14 77 -31 55 -32 54 -32 121
2 10 5 38 9 63 9 26 0 63 9 85 20 22 11 59 20 84 20 41 0 50 5 99 53 61 60
113 132 123 171 14 57 -3 93 -83 171 -42 41 -81 75 -87 75 -5 0 -22 12 -37 26
-22 21 -38 26 -78 27 -28 0 -62 -5 -76 -13 -22 -12 -27 -11 -48 7 -12 12 -41
24 -65 28 -38 6 -42 9 -35 28 4 12 8 48 8 79 0 54 -3 60 -40 98 -34 34 -48 41
-90 45 -28 2 -59 1 -70 -2z m92 -85 c4 -7 15 -13 23 -13 11 0 15 -12 15 -50 0
-39 -3 -50 -16 -50 -34 0 -47 -24 -47 -88 0 -89 38 -127 74 -72 14 22 23 25
76 25 l60 0 -7 -65 c-7 -60 -6 -65 12 -65 28 0 68 47 68 78 0 26 2 27 63 30
l63 3 -6 -46 c-7 -46 5 -61 23 -29 5 9 18 14 33 12 19 -2 24 -9 24 -33 0 -26
4 -30 26 -30 37 0 59 -22 59 -61 0 -27 -8 -40 -45 -70 -24 -21 -42 -41 -39
-46 3 -5 -2 -18 -12 -29 -16 -17 -29 -20 -84 -17 -59 3 -65 1 -65 -17 0 -18
-7 -20 -77 -20 -69 0 -79 -2 -93 -22 -28 -39 -89 -21 -90 26 0 14 -11 15 -72
13 l-73 -4 0 31 c0 26 4 31 25 31 29 0 32 14 9 38 -15 15 -17 14 -29 -2 -20
-27 -60 -17 -60 15 0 41 -22 59 -70 59 -29 0 -45 -5 -49 -15 -3 -9 -18 -15
-36 -15 -29 0 -31 2 -28 33 2 24 8 32 23 32 16 0 19 6 17 33 -3 30 -1 32 26
32 21 0 35 -8 47 -26 16 -25 17 -25 36 -8 23 21 25 42 4 50 -9 4 -15 19 -15
36 0 28 1 29 43 26 l42 -3 -3 58 c-3 46 0 58 13 63 11 5 15 14 11 29 -4 15 -1
25 9 29 23 9 18 28 -7 24 -21 -3 -23 1 -23 37 0 29 4 40 15 40 8 0 19 6 23 13
4 6 23 12 42 12 19 0 38 -6 42 -12z"/>
<path d="M14874 11347 c-4 -12 -13 -15 -29 -11 -18 4 -26 -1 -39 -27 -20 -41
-20 -42 4 -36 21 5 45 -16 45 -42 0 -11 9 -16 30 -16 28 0 30 3 30 35 -1 19 5
40 13 45 10 8 7 16 -17 39 -26 25 -31 27 -37 13z"/>
<path d="M18105 11753 c-11 -2 -30 -6 -42 -8 -30 -7 -83 -53 -95 -84 -6 -14
-11 -61 -12 -103 -2 -62 -7 -83 -23 -100 -31 -36 -43 -78 -41 -148 2 -39 -3
-78 -12 -98 -14 -31 -13 -33 12 -59 l27 -26 -43 -33 c-55 -42 -74 -94 -55
-150 17 -46 111 -144 140 -144 47 0 116 58 125 105 6 35 -22 111 -51 135 -25
21 -18 40 15 40 60 0 132 58 150 121 6 18 10 80 10 136 0 91 3 107 28 154 22
44 27 66 27 126 0 68 -2 74 -34 107 -35 36 -64 43 -126 29z m95 -133 c0 -44
-4 -62 -14 -66 -8 -3 -12 -12 -10 -19 3 -8 -6 -21 -21 -31 -19 -12 -25 -23
-21 -37 3 -13 -2 -25 -12 -33 -16 -12 -16 -13 1 -19 14 -6 17 -21 17 -101 0
-63 -4 -96 -12 -101 -7 -4 -13 -15 -13 -23 0 -23 -63 -26 -80 -3 -13 17 -14
17 -20 1 -5 -12 -18 -18 -37 -18 -27 0 -29 2 -26 33 2 24 8 32 23 32 27 0 34
61 10 79 -12 8 -15 24 -13 56 3 43 5 45 33 45 29 0 30 2 27 38 -2 26 2 39 13
43 21 8 21 90 0 98 -9 3 -15 18 -15 37 0 31 1 31 39 25 29 -4 40 -2 45 9 3 10
19 15 46 15 l40 0 0 -60z m-235 -600 c10 -11 15 -23 12 -26 -4 -4 5 -15 18
-26 17 -13 25 -30 25 -49 0 -27 -3 -29 -38 -29 -40 0 -80 29 -68 48 3 6 -1 12
-9 16 -10 3 -15 19 -15 46 0 37 2 40 28 40 16 0 37 -9 47 -20z"/>
<path d="M12295 11543 c-54 -13 -105 -94 -105 -167 0 -35 6 -48 38 -78 75 -72
104 -74 165 -14 50 48 64 89 54 154 -11 66 -90 120 -152 105z m85 -130 c0 -60
-20 -83 -72 -83 l-38 0 0 65 0 65 55 0 55 0 0 -47z"/>
<path d="M16700 11209 c-59 -8 -69 -13 -106 -54 -44 -47 -47 -57 -60 -199 -6
-56 -4 -60 28 -93 39 -41 78 -63 110 -63 13 0 43 -14 67 -30 25 -17 57 -30 74
-30 17 0 46 -5 64 -12 30 -11 39 -10 79 11 l45 24 49 -48 c42 -41 55 -48 98
-53 58 -5 95 11 141 63 31 36 42 87 21 100 -5 3 -10 18 -10 32 l0 26 26 -24
c17 -16 23 -30 19 -44 -20 -64 -16 -80 30 -125 41 -41 98 -70 137 -70 13 0 21
-13 29 -45 8 -33 23 -55 52 -80 22 -19 46 -35 53 -35 6 0 31 17 55 39 42 37
44 41 44 96 0 54 -2 59 -40 91 -22 19 -48 37 -59 40 -16 5 -18 12 -10 68 17
126 16 128 -66 211 -90 90 -113 95 -179 39 l-42 -37 -32 30 c-45 43 -68 53
-137 58 -34 2 -67 8 -73 13 -7 5 -30 12 -52 16 -39 7 -66 17 -175 70 -58 27
-76 29 -180 15z m135 -94 c0 -17 6 -20 35 -17 21 2 39 -3 45 -11 6 -8 21 -14
35 -13 36 1 38 -30 4 -65 -15 -16 -36 -29 -46 -29 -41 0 -10 -43 32 -44 11 -1
16 -16 18 -63 l3 -63 -41 0 c-26 0 -43 5 -46 14 -4 11 -21 14 -62 13 l-57 -2
0 30 0 30 -72 -3 -73 -4 0 61 c0 45 4 63 14 67 12 4 13 17 9 56 l-6 51 60 -6
c50 -5 62 -4 67 9 4 11 17 14 43 12 30 -2 38 -7 38 -23z m259 -83 c3 -5 3 -25
-1 -45 -6 -42 -21 -46 -71 -21 -32 15 -37 28 -26 58 7 17 88 23 98 8z m102
-26 c4 -10 16 -12 45 -9 38 6 39 5 39 -25 0 -25 -6 -34 -32 -46 -41 -18 -103
-15 -124 5 -14 15 -14 20 0 53 12 28 21 36 41 36 14 0 28 -6 31 -14z m304 -35
c0 -16 -6 -31 -15 -35 -8 -3 -15 -11 -15 -17 0 -8 16 -9 55 -4 l55 6 0 -31 c0
-18 -6 -33 -15 -36 -10 -4 -13 -13 -9 -26 4 -13 -1 -24 -13 -33 -17 -13 -17
-14 0 -20 11 -5 17 -18 17 -36 0 -27 -3 -29 -40 -29 -26 0 -43 5 -46 15 -4 10
-15 12 -35 8 -27 -5 -29 -3 -29 26 0 22 7 35 25 47 14 9 25 22 25 29 0 16 -28
40 -49 40 -11 0 -17 11 -19 34 -4 43 38 91 80 91 24 0 28 -4 28 -29z m-295
-111 c9 -7 14 -19 11 -26 -3 -7 2 -15 10 -18 8 -3 14 -19 14 -36 l0 -30 -60 0
c-36 0 -62 5 -67 13 -4 6 -15 12 -23 12 -15 0 -27 63 -16 91 7 17 108 13 131
-6z m475 -265 c0 -45 0 -45 -35 -45 -35 0 -35 0 -35 45 0 45 0 45 35 45 35 0
35 0 35 -45z"/>
<path d="M15345 11026 c-38 -32 -40 -37 -40 -91 0 -55 2 -59 44 -96 24 -22 49
-39 56 -39 7 0 32 17 56 39 42 37 44 41 44 96 0 54 -2 59 -40 91 -22 18 -49
34 -60 34 -11 0 -38 -16 -60 -34z m95 -91 c0 -45 0 -45 -35 -45 -35 0 -35 0
-35 45 0 45 0 45 35 45 35 0 35 0 35 -45z"/>
<path d="M16425 7866 c-36 -30 -40 -39 -40 -79 0 -39 5 -52 34 -81 25 -26 44
-36 66 -36 22 0 41 10 66 36 29 29 34 42 34 81 0 40 -4 49 -40 79 -22 18 -49
34 -60 34 -11 0 -38 -16 -60 -34z m95 -81 c0 -33 -2 -35 -35 -35 -33 0 -35 2
-35 35 0 33 2 35 35 35 33 0 35 -2 35 -35z"/>
<path d="M10428 7767 c-20 -17 -42 -49 -49 -70 -13 -36 -12 -38 25 -76 71 -73
118 -77 184 -16 33 29 37 39 37 80 0 43 -4 50 -40 81 -55 46 -105 47 -157 1z
m132 -82 l0 -35 -55 0 -55 0 0 35 0 35 55 0 55 0 0 -35z"/>
<path d="M16963 4628 c-17 -18 -36 -49 -43 -69 -12 -32 -10 -39 13 -76 24 -39
93 -103 109 -103 26 0 91 56 110 94 26 55 20 84 -34 142 -35 39 -46 44 -82 44
-34 0 -48 -6 -73 -32z m119 -65 c35 -31 10 -93 -38 -93 -25 0 -54 46 -54 87 0
20 5 23 37 23 20 0 45 -7 55 -17z"/>
<path d="M15810 4601 c-8 -6 -53 -11 -99 -11 -74 0 -90 -3 -145 -32 -33 -18
-80 -45 -102 -60 -25 -17 -56 -28 -75 -28 -19 0 -51 -6 -72 -14 -41 -14 -126
-91 -158 -143 -26 -41 -38 -41 -75 -2 -27 29 -33 31 -80 26 -28 -3 -70 -15
-93 -26 -44 -23 -121 -112 -121 -141 0 -9 -8 -28 -19 -41 -27 -34 -61 -97 -61
-112 0 -7 -9 -32 -20 -55 -11 -22 -20 -47 -20 -54 0 -7 20 -35 45 -62 25 -27
45 -52 45 -56 0 -8 -104 -104 -149 -138 -40 -31 -61 -81 -61 -147 0 -49 3 -55
44 -93 25 -23 57 -44 72 -48 40 -10 91 21 138 84 25 33 46 52 59 52 12 0 42
18 68 40 26 22 54 40 61 40 8 0 21 -16 28 -36 14 -36 83 -104 105 -104 19 0
84 61 100 94 9 18 20 66 25 107 5 41 12 90 15 109 5 28 1 43 -19 73 -29 42
-34 77 -11 77 8 0 33 -10 55 -21 36 -19 44 -20 73 -8 17 7 66 48 107 91 68 70
80 78 113 78 21 0 51 7 67 15 69 36 121 47 194 40 131 -11 166 -9 264 11 56
12 120 98 127 175 1 8 10 38 19 67 10 31 15 64 11 80 -8 39 -62 88 -105 96
-20 4 -50 22 -72 43 l-38 37 -112 3 c-68 3 -119 0 -128 -6z m248 -123 l-3 -43
73 3 72 4 0 -31 c0 -16 -6 -34 -12 -38 -7 -4 -13 -15 -13 -23 0 -11 -9 -14
-32 -12 -25 3 -33 0 -33 -12 0 -10 9 -16 25 -16 22 0 25 -4 25 -35 0 -18 -6
-38 -12 -42 -7 -4 -13 -15 -13 -23 0 -22 -44 -25 -60 -3 -13 17 -14 17 -20 1
-4 -10 -11 -15 -17 -12 -5 3 -15 -1 -21 -11 -10 -12 -25 -15 -67 -13 l-55 3 3
43 c3 32 0 42 -11 42 -15 0 -30 -24 -31 -50 -1 -9 -12 -16 -28 -18 -24 -3 -28
0 -28 22 0 16 -6 26 -15 26 -9 0 -15 -10 -15 -26 0 -18 -4 -25 -14 -21 -8 3
-17 -1 -20 -9 -4 -10 -17 -14 -43 -12 -32 3 -38 0 -38 -17 0 -18 -7 -20 -67
-20 -66 0 -67 -1 -102 -41 -20 -23 -44 -41 -53 -40 -14 1 -18 -6 -18 -29 0
-23 -4 -30 -20 -30 -13 0 -20 -7 -20 -20 0 -26 -52 -35 -61 -11 -3 9 -10 13
-16 10 -5 -3 -15 2 -22 11 -8 12 -24 16 -56 13 -37 -2 -45 -6 -45 -23 0 -12
-7 -20 -16 -20 -36 0 -50 -26 -47 -84 3 -53 4 -56 29 -56 36 0 61 -23 57 -54
-2 -18 -9 -26 -23 -26 -26 0 -34 -44 -11 -57 21 -12 22 -76 1 -84 -10 -4 -12
-15 -8 -35 5 -28 4 -29 -31 -29 -35 0 -36 1 -36 39 0 27 5 41 16 45 15 6 15 8
-1 26 -12 13 -29 18 -54 17 -30 -2 -36 1 -36 18 0 17 -7 20 -40 20 -33 0 -40
-3 -40 -19 0 -11 -6 -21 -13 -24 -6 -2 -9 -8 -6 -13 9 -15 -26 -49 -51 -49
-13 0 -26 7 -29 16 -6 15 -8 15 -26 -1 -10 -9 -16 -22 -14 -29 6 -15 -22 -41
-45 -41 -13 0 -15 -9 -13 -42 l3 -43 -55 0 -56 0 0 76 0 77 37 -6 c39 -7 76
14 67 37 -6 15 62 81 84 81 10 0 17 8 17 20 0 16 7 20 30 20 29 0 30 1 30 50
0 38 -4 50 -15 50 -8 0 -19 6 -23 13 -6 9 -19 11 -39 7 -38 -9 -68 17 -68 58
0 27 2 29 29 24 20 -4 33 -1 45 12 22 24 20 33 -6 29 -20 -3 -23 2 -23 27 0
23 4 30 20 30 13 0 19 6 17 17 -1 10 9 25 23 34 21 14 24 22 20 48 -5 26 -1
36 23 59 21 20 36 27 50 23 13 -4 22 -1 26 9 7 20 64 20 88 -2 22 -20 24 -61
3 -69 -20 -8 -19 -62 1 -85 14 -15 18 -16 45 -2 18 9 28 21 25 28 -6 16 20 40
43 40 11 0 16 9 16 29 0 16 6 31 12 33 8 3 11 14 7 27 -4 18 2 30 28 51 18 15
33 35 33 44 0 9 7 16 15 16 8 0 20 6 26 14 8 11 25 12 71 7 l60 -7 28 36 c21
29 32 35 50 31 18 -5 29 2 49 29 26 34 29 35 98 35 55 0 74 -4 83 -17 11 -15
14 -14 30 10 17 27 17 27 147 27 l129 0 -3 -42z"/>
<path d="M14875 4030 c-15 -24 37 -100 67 -100 19 0 25 29 9 46 -5 5 -11 20
-13 34 -2 19 -10 26 -30 28 -14 2 -29 -2 -33 -8z"/>
<path d="M16780 4357 c-44 -15 -85 -41 -131 -84 -20 -19 -64 -47 -98 -63 -34
-16 -77 -41 -95 -55 -18 -14 -37 -25 -42 -25 -15 0 -79 -72 -92 -103 -16 -38
-15 -72 2 -87 12 -9 14 -37 11 -137 -3 -124 -3 -125 -34 -157 -17 -18 -31 -37
-31 -42 0 -6 -9 -19 -20 -29 -11 -10 -20 -22 -20 -26 0 -5 -18 -33 -41 -63
-29 -39 -50 -57 -73 -62 -45 -10 -103 -59 -111 -94 -4 -17 -1 -46 5 -66 10
-30 9 -38 -4 -53 -9 -10 -16 -24 -16 -32 0 -18 -24 -86 -33 -95 -13 -13 -7
-72 8 -84 9 -7 25 -32 35 -55 20 -44 84 -109 119 -120 34 -11 104 37 122 84 7
17 15 22 29 18 60 -16 194 125 182 191 -4 16 17 16 37 -1 9 -7 32 -18 53 -25
32 -11 41 -10 80 8 23 12 56 39 72 61 39 55 44 103 16 163 -19 43 -20 53 -10
97 7 27 10 77 8 110 l-3 62 45 23 c25 13 54 24 66 24 80 1 185 126 198 236 2
12 13 36 26 53 39 56 38 97 -10 194 -23 48 -46 90 -52 93 -6 4 -18 25 -29 48
-36 82 -98 116 -169 93z m100 -116 c0 -44 -13 -54 -61 -44 -22 4 -33 1 -43
-12 -7 -10 -18 -15 -23 -12 -6 4 -13 0 -17 -8 -3 -9 -18 -15 -36 -15 -29 0
-31 2 -28 33 2 20 8 32 18 32 8 0 23 10 34 23 10 13 24 21 31 18 8 -2 16 2 19
10 4 9 21 14 56 14 l50 0 0 -39z m56 -100 c-4 -27 -2 -43 6 -48 7 -4 13 -15
13 -23 0 -8 9 -15 20 -15 17 0 20 -7 20 -40 0 -33 -3 -40 -20 -40 -11 0 -20
-7 -20 -15 0 -8 -6 -19 -13 -23 -8 -6 -11 -20 -6 -43 5 -26 2 -35 -10 -40 -10
-4 -15 -17 -13 -42 2 -29 -2 -37 -15 -37 -10 0 -25 -11 -34 -23 -13 -20 -22
-23 -49 -18 -23 5 -35 2 -37 -6 -3 -8 -21 -13 -44 -13 -30 0 -39 -4 -39 -17 0
-27 -23 -43 -63 -43 -35 0 -37 -2 -40 -36 -2 -29 2 -39 22 -53 23 -14 26 -24
26 -71 0 -47 -3 -57 -25 -71 -14 -9 -24 -22 -22 -28 2 -6 -3 -16 -11 -22 -11
-8 -5 -17 32 -48 37 -30 46 -43 46 -70 0 -57 -89 -116 -106 -71 -4 10 -14 13
-29 9 -18 -4 -30 4 -61 40 -30 37 -45 46 -70 46 -41 0 -66 -29 -62 -72 2 -25
8 -33 23 -33 16 0 21 -8 23 -44 3 -39 -1 -48 -35 -83 -27 -28 -45 -38 -63 -36
-22 3 -25 7 -22 36 3 34 -8 41 -27 18 -7 -8 -20 -12 -29 -9 -10 2 -26 -5 -36
-16 -17 -19 -17 -21 -2 -27 12 -5 16 -19 16 -56 l0 -49 -42 3 c-30 2 -43 8
-43 18 0 8 -6 20 -14 26 -8 6 -11 16 -8 21 4 6 -4 18 -18 27 -28 18 -34 63
-10 72 10 4 13 14 9 29 -4 15 0 26 9 32 8 4 14 19 13 33 -1 16 4 25 14 25 8 0
18 5 22 10 4 6 20 10 35 10 27 0 28 1 28 59 0 38 5 61 13 64 7 2 9 9 6 14 -4
6 -1 16 7 22 8 6 14 18 14 26 0 8 9 15 20 15 13 0 20 7 20 20 0 13 7 20 20 20
15 0 20 7 20 28 0 15 5 31 10 35 6 4 10 14 10 22 0 8 9 15 20 15 16 0 20 7 20
30 0 29 1 30 50 30 39 0 50 4 50 16 0 8 24 35 52 60 57 48 60 54 39 75 -19 19
-36 18 -36 -3 0 -28 -31 -53 -67 -53 l-33 0 0 60 c0 46 4 62 16 67 13 5 15 15
9 48 -4 33 -2 44 10 48 28 11 16 28 -17 25 -32 -3 -33 -2 -36 41 -3 44 -3 44
26 38 26 -5 34 -1 57 29 15 20 33 33 40 30 8 -3 21 6 30 20 13 21 23 25 53 22
36 -3 37 -4 37 -43 0 -29 4 -40 15 -40 8 0 19 -6 23 -13 5 -7 18 -10 31 -6 16
4 25 0 29 -10 13 -32 61 -6 62 33 0 9 8 16 20 16 15 0 20 7 20 28 0 15 6 31
14 36 7 5 11 13 7 19 -8 13 10 20 53 21 l34 1 -7 -39z m-801 -836 c0 -27 -4
-30 -32 -33 -32 -3 -33 -2 -33 33 0 35 1 36 33 33 28 -3 32 -6 32 -33z"/>
<path d="M16610 3870 c0 -5 -9 -10 -20 -10 -11 0 -20 -7 -20 -15 0 -8 8 -15
19 -15 10 0 21 -9 24 -20 4 -15 14 -20 36 -20 28 0 31 3 31 29 0 23 -7 33 -32
45 -37 19 -38 19 -38 6z"/>
</g>
</svg>
